<svg width="1920" height="2049" viewBox="0 0 1920 2049" fill="none" xmlns="http://www.w3.org/2000/svg">
<path d="M0 1878.5L5.5 1880L18 1884L25.5 1903L51 1909L84 1903H133C142.833 1906.67 163.2 1914 166 1914C168.8 1914 225.167 1919.33 253 1922C266 1926.33 293 1935.2 297 1936C301 1936.8 356.667 1939.33 384 1940.5C390.833 1937 405.4 1930 409 1930H477.5C493.333 1937 526 1951.3 530 1952.5C535 1954 593 1979 602.5 1979.5C610.1 1979.9 650 1983.33 669 1985L718 1975L752.5 1966L848.5 1952.5C880.5 1961.5 945.4 1979.5 949 1979.5C952.6 1979.5 1003.83 1992.17 1029 1998.5L1093 2022.5L1193.5 2048.5L1261.5 2022.5C1269.33 2019.67 1287.3 2014.1 1296.5 2014.5C1308 2015 1335 2022.5 1339.5 2022.5C1344 2022.5 1389 2033 1393.5 2035C1398 2037 1441.5 2048.5 1445 2048.5C1448.5 2048.5 1482.5 2046.5 1487 2044.5C1490.6 2042.9 1513.17 2031.83 1524 2026.5L1577 2019L1604.5 2026.5L1643.5 2035L1731.5 2039L1777.5 2019C1789 2012.17 1812.9 1998.3 1816.5 1997.5C1820.1 1996.7 1847.67 1980.83 1861 1973H1892L1915 1963.5L1920 1960.5V89H0V1878.5Z" fill="url(#paint0_linear)"/>
<defs>
<linearGradient id="paint0_linear" x1="960" y1="89" x2="960" y2="1688.5" gradientUnits="userSpaceOnUse">
<stop stop-color="#4C7631"/>
<stop offset="1" stop-color="#18201B"/>
</linearGradient>
</defs>
</svg>
