<svg width="1920" height="1959" viewBox="0 0 1920 1959" fill="none" xmlns="http://www.w3.org/2000/svg">
<path d="M0 1788.5L5.5 1790L18 1794L25.5 1813L51 1819L84 1813H133C142.833 1816.67 163.2 1824 166 1824C168.8 1824 225.167 1829.33 253 1832C266 1836.33 293 1845.2 297 1846C301 1846.8 356.667 1849.33 384 1850.5C390.833 1847 405.4 1840 409 1840H477.5C493.333 1847 526 1861.3 530 1862.5C535 1864 593 1889 602.5 1889.5C610.1 1889.9 650 1893.33 669 1895L718 1885L752.5 1876L848.5 1862.5C880.5 1871.5 945.4 1889.5 949 1889.5C952.6 1889.5 1003.83 1902.17 1029 1908.5L1093 1932.5L1193.5 1958.5L1261.5 1932.5C1269.33 1929.67 1287.3 1924.1 1296.5 1924.5C1308 1925 1335 1932.5 1339.5 1932.5C1344 1932.5 1389 1943 1393.5 1945C1398 1947 1441.5 1958.5 1445 1958.5C1448.5 1958.5 1482.5 1956.5 1487 1954.5C1490.6 1952.9 1513.17 1941.83 1524 1936.5L1577 1929L1604.5 1936.5L1643.5 1945L1731.5 1949L1777.5 1929C1789 1922.17 1812.9 1908.3 1816.5 1907.5C1820.1 1906.7 1847.67 1890.83 1861 1883H1892L1915 1873.5L1920 1870.5V1746H0L0 1788.5Z" fill="#18201B"/>
<rect width="1920" height="1746" fill="#18201B"/>
</svg>
