<svg width="448" height="410" viewBox="0 0 448 410" fill="none" xmlns="http://www.w3.org/2000/svg">
<path d="M228.401 368C226.53 368 225 366.445 225 364.53V233L279.693 355.867C280.472 357.607 279.716 359.662 278.01 360.456C276.31 361.24 274.285 360.48 273.512 358.733L231.801 265.025V364.53C231.801 366.445 230.277 368 228.401 368Z" fill="#694329"/>
<path d="M186.633 360L185.351 359.778C183.473 359.095 182.525 357.085 183.236 355.28L225.97 246.26C226.669 244.455 228.778 243.544 230.65 244.227C232.521 244.905 233.475 246.92 232.764 248.72L190.03 357.745C189.483 359.141 188.098 360 186.633 360Z" fill="#694329"/>
<path d="M227.91 317L196 305.809L198.271 299.012L227.957 309.427L258.799 299L261 305.821L227.91 317Z" fill="#694329"/>
<path d="M388.307 265H68.6989L55 9.0785L402 1.57952e-05L388.307 265Z" fill="#7A553C"/>
<path d="M81.2542 252L69 21.3821L387 13L374.728 252H81.2542Z" fill="#F8F3E0"/>
<path d="M130.016 93C127.598 91.9872 124.114 89.5095 120.113 86.3796L116 60.1498L150.763 55L156 88.4224L130.016 93Z" fill="#F1E8C5"/>
<path d="M154 89.8148L119.656 95L114 58.1852L148.344 53L154 89.8148Z" fill="#A48CDD"/>
<path d="M149 59.5233L114.94 65L114 58.4767L148.06 53L149 59.5233Z" fill="#8A78BF"/>
<path d="M334.147 223L309.315 217.239C309.217 216.683 309.109 216.109 309 215.523L332.934 221.076L339.45 191L341 191.361L334.147 223Z" fill="#F1E8C5"/>
<path d="M331.975 221L303 214.479L310.025 183L339 189.521L331.975 221Z" fill="#A48CDD"/>
<path d="M337.827 195L309 188.365L310.173 183L339 189.629L337.827 195Z" fill="#8A78BF"/>
<path d="M139.349 219L105 217.423L106.375 185.444L106.651 179L141 180.577L139.349 219Z" fill="#F1E8C5"/>
<path d="M329.723 78L309 67.6417L309.628 66.4401L331.466 77.3564L329.723 78ZM344.663 72.4991L356.378 50L357 50.3131L354.135 55.8141L345.639 72.1403L344.663 72.4991Z" fill="#F1E8C5"/>
<path d="M339.939 82L309 65.9784L326.067 32L357 48.0214L339.939 82Z" fill="#8DB1EB"/>
<path d="M354.033 53L322 37.511L324.967 32L357 47.489L354.033 53Z" fill="#759EE0"/>
<path d="M332.978 111L322 81.307L329.546 78.432L339.619 83.6466L345.24 72.4433L349.027 71L360 100.693L332.978 111Z" fill="#F1E8C5"/>
<path d="M339.628 84L330 78.4146L331.643 77.7101L339.628 82.3419L344.08 72.3928L345 72L339.628 84Z" fill="#EADDAD"/>
<path d="M339.062 82L332 77.3445L343 72L339.062 82Z" fill="#89A9CE"/>
<path d="M359 100.697L331.263 111L320 81.3027L347.737 71L359 100.697Z" fill="#C9C94F"/>
<path d="M349 75.8896L321.848 86L320 81.1104L347.147 71L349 75.8896Z" fill="#B0B54F"/>
<path d="M137.349 217L103 215.423L104.651 177L139 178.577L137.349 217Z" fill="#FFD765"/>
<path d="M138.729 185L105 183.428L105.271 177L139 178.571L138.729 185Z" fill="#FFC92E"/>
<path d="M437.203 373.131C436.531 376.478 439 378.57 439 378.57C439 378.57 431.361 386.306 422.374 386.936C413.387 387.561 408 383.378 408 383.378C408 383.378 418.779 378.358 420.355 374.174C421.924 369.991 437.203 373.131 437.203 373.131Z" fill="#F0BB8F"/>
<path d="M439.621 378.619C441.787 380.025 440.753 389.876 440.753 389.876C440.753 389.876 418.811 400.569 407.457 398.803C396.109 397.037 395.357 391.168 398.827 388.807C402.297 386.447 411.445 382.608 411.445 382.608L414.961 378.013C414.961 378.013 416.949 377.748 419 379.647C421.063 381.545 418.523 384.584 418.523 384.584C418.523 384.584 423.309 384.879 428.469 383.605C433.629 382.326 439.621 378.619 439.621 378.619Z" fill="#4C3E35"/>
<path d="M395.315 365.054C394.681 368.18 397 370.132 397 370.132C397 370.132 389.851 377.355 381.444 377.939C373.043 378.529 368 374.626 368 374.626C368 374.626 378.086 369.939 379.557 366.03C381.029 362.126 395.315 365.054 395.315 365.054Z" fill="#F0BB8F"/>
<path d="M397.686 370.558C399.75 371.828 398.765 380.747 398.765 380.747C398.765 380.747 377.814 390.42 366.983 388.822C356.151 387.224 355.432 381.914 358.743 379.782C362.054 377.644 370.781 374.167 370.781 374.167L374.144 370.012C374.144 370.012 376.034 369.77 378 371.489C379.96 373.207 377.548 375.954 377.548 375.954C377.548 375.954 382.111 376.224 387.034 375.069C391.957 373.914 397.686 370.558 397.686 370.558Z" fill="#4C3E35"/>
<path d="M435.156 285.954C431.283 272.703 430.598 230.119 430.201 215.447C429.816 200.78 429.418 195.579 428.06 188.144L393.158 174L366.588 193.461C366.588 193.461 365.817 228.001 366.041 236.527C366.265 245.059 366.38 285.136 368.918 292.524C371.45 299.919 371.451 303.894 371.169 312.705C370.915 320.697 372.285 356.74 372.544 363.386C372.561 364.053 372.947 364.651 373.539 364.947C382.321 369.259 393.399 367.257 396.967 366.439C397.704 366.27 398.216 365.684 398.308 364.93C399.367 356.432 401.065 326.112 401.329 316.686C401.606 306.738 398.509 302.188 396.541 295.368C395.195 290.737 397.082 253.492 397.192 235.117C400.852 255.547 408.437 297.551 409.501 300.772C410.911 305.032 413.167 310.72 414.295 327.488C415.29 342.346 416.067 367.472 416.228 373.003C416.251 373.694 416.631 374.326 417.253 374.599C423.675 377.397 434.592 375.284 438.344 374.425C439.127 374.245 439.685 373.595 439.725 372.788C440.002 367.57 441.049 347.721 441.855 329.014C442.793 307.249 439.035 299.205 435.156 285.954Z" fill="#6F8FEA"/>
<path d="M397 366C397.093 365.983 397.18 365.965 397.267 365.948C398.063 365.78 398.617 365.194 398.716 364.44C399.861 355.953 401.695 325.667 401.981 316.252C401.994 315.823 402 315.406 402 315C402 315.406 401.994 315.823 401.981 316.252C401.695 325.667 399.861 355.953 398.716 364.44C398.617 365.194 398.063 365.78 397.267 365.948C397.18 365.965 397.093 365.983 397 366Z" fill="#A8B9E9"/>
<path d="M388.985 368C388.985 368 388.885 294.86 385.996 286.37C383.588 279.286 386.186 221.011 387.109 202C389.761 202.255 392.732 202.401 396.058 202.401C396.425 202.401 396.792 202.401 397.153 202.395L397.727 235.516C397.644 249.103 396.561 273.009 396.561 286.428C396.561 291.161 396.697 294.587 397.058 295.795C398.999 302.327 402 306.775 402 315.868C402 316.275 401.994 316.693 401.982 317.122C401.71 326.552 399.964 356.886 398.875 365.387C398.78 366.142 398.254 366.728 397.496 366.897C397.413 366.914 397.33 366.932 397.242 366.949C395.567 367.315 392.542 367.832 388.985 368Z" fill="#6081DE"/>
<path d="M430.042 376C431.448 363.399 431.003 300.815 425.841 285.815C421.246 272.492 417.228 218.034 416 199.911C422.774 198.56 426.863 196.672 428.986 195.437C429.203 195.315 429.397 195.169 429.575 195C429.764 200.208 430.298 202.766 430.609 215.052C430.992 229.779 431.653 272.521 435.393 285.82C438.744 297.716 442 305.429 442 322.562C442 324.584 441.956 326.739 441.861 329.04C441.083 347.816 440.072 367.739 439.805 372.976C439.766 373.786 439.227 374.439 438.472 374.619C436.788 375.021 433.582 375.68 430.042 376Z" fill="#6081DE"/>
<path d="M375.977 51C372.442 75.9961 374.726 97 374.726 97L408 93.8461L397.278 51H375.977Z" fill="#8A3F24"/>
<path d="M390.026 88C387.396 88.384 380.381 89.3529 376.072 91.084C371.763 92.8209 367.991 97.2578 364.224 109.606C362.026 116.813 360.342 123.826 359.321 128.411C358.594 131.678 355 151.623 355 151.623L397 153V95.7158L390.026 88Z" fill="#EF384C"/>
<path d="M389.554 88C386.853 88.3746 379.648 89.3197 375.222 91.0082C371.151 92.5641 367.555 96.4194 364 106.366L364.409 107C368.23 100.73 373.699 96.5059 376.591 95.3361C379.488 94.1604 388.636 92.3394 388.636 92.3394L391 89.5156L389.554 88Z" fill="#D9293C"/>
<path d="M390.727 82.3025C391.849 84.9271 390.544 89.678 389.421 91.3814C388.299 93.0848 389.043 99.3247 396.333 100.651C403.629 101.972 408.49 99.3247 410.918 96.3003C413.352 93.2702 410.918 73.0325 410.918 73.0325L404.379 69L390.727 82.3025Z" fill="#F0BB8F"/>
<path d="M370.077 131.255C369.353 123.231 374 109 374 109C374 109 371.893 125.662 374 132L370.077 131.255Z" fill="#D9293C"/>
<path d="M399.839 88C394.918 88 391.076 87.1836 391 87.165C391.14 86.3795 391.228 85.5753 391.239 84.8021C391.467 84.8268 391.695 84.8331 391.928 84.8331C395.204 84.8331 399.197 82.6372 402.84 79.8784C404.329 78.7526 405.636 77.4412 406.711 76C407.172 78.0969 408.018 79.8845 409.577 81.0474C409.589 81.0536 409.601 81.066 409.612 81.0722L409.618 81.0784C409.63 81.0845 409.636 81.0907 409.647 81.0969C409.653 81.1031 409.653 81.1031 409.659 81.1093C409.665 81.1155 409.676 81.1217 409.682 81.1279C409.688 81.1279 409.694 81.1341 409.694 81.1341C409.706 81.1403 409.711 81.1463 409.723 81.1525C409.729 81.1525 409.729 81.1587 409.735 81.1587C409.747 81.1711 409.758 81.1773 409.77 81.1835C411.422 82.3216 412 83.5525 412 84.8762C411.994 85.1793 411.965 85.4886 411.907 85.7979C408.071 87.5113 403.64 88 399.839 88Z" fill="#ECB384"/>
<path d="M409.207 64.1781C411.568 69.7735 408.419 75.7424 402.921 79.4651C397.417 83.1992 391.131 85.8074 387.589 82.4524C384.058 79.0974 379.604 73.4114 379.604 69.6773C379.604 65.9546 375.018 65.6717 376.193 57.8415C377.367 50.0113 382.872 44.7949 386.02 44.0481C389.163 43.3012 408.026 51.5048 408.026 51.5048L409.207 64.1781Z" fill="#F0BB8F"/>
<path d="M384.171 43.8054C384.471 45.5626 382.356 51.7244 378.845 56.0883C375.339 60.458 378.986 65.2116 376.425 69.5813C373.864 73.9452 381.016 87.4382 376.425 92.5643C371.828 97.6962 367.395 97.8824 366.106 107C366.106 107 362.227 98.4526 364.998 91.9941C367.768 85.5356 370.906 82.1201 368.136 76.226C365.371 70.3377 364.63 60.842 367.768 57.4208C370.906 54.0053 374.344 46.0224 374.101 41.2745C373.864 36.5266 383.459 25.8904 389 29.876L384.171 43.8054Z" fill="#A0593F"/>
<path d="M427.803 136.085C424.3 148.881 424.533 155.796 427.039 163.951C429.195 170.966 430.384 187.813 430.973 192.524C431.148 193.892 430.472 195.178 429.271 195.845C425.46 197.966 415.605 202 395.902 202C374.999 202 368.431 196.002 366.555 193.384C366.083 192.717 365.92 191.905 366.036 191.092C366.561 187.345 368.286 165.693 368.694 160.853C369.171 155.106 377.522 116.56 377.522 116.56L390.162 96.1238L418.094 84L429.51 90.0911L427.803 136.085Z" fill="#EF384C"/>
<path d="M379 133C378.551 131.434 376.652 127.913 374.122 128.002C371.586 128.09 368.059 128.904 366.979 129.358C365.888 129.806 364 132.613 364 132.613L379 133Z" fill="#F0BB8F"/>
<path d="M366 158.576C364.533 160.205 361.819 160.305 359.01 159.535C356.201 158.764 354.746 152.658 355.037 151.247C355.322 149.835 360.192 141 360.192 141L366 158.576Z" fill="#F0BB8F"/>
<path d="M392.469 133.482L403.951 168.748C404.157 169.379 403.682 170.029 403.041 169.999L370.902 168.559L370.06 167.903L359.047 133.246C358.847 132.626 359.311 131.983 359.952 132L391.621 132.839L392.469 133.482Z" fill="#C3C6D5"/>
<path d="M430.974 193.043C430.411 188.335 429.274 171.501 427.212 164.491C424.815 156.342 424.592 149.432 427.942 136.645C425.668 129.034 423.756 113 423.756 113C423.756 113 417.196 142.3 418.082 151.29C418.963 160.25 419.91 199.801 419.916 200C424.576 198.773 427.63 197.36 429.346 196.361C430.495 195.695 431.141 194.41 430.974 193.043Z" fill="#D9293C"/>
<path d="M390.468 133.482L401.951 168.748C402.157 169.379 401.688 170.029 401.035 169.999L368.894 168.559L368.064 167.903L357.045 133.246C356.851 132.626 357.309 131.983 357.944 132L389.615 132.839L390.468 133.482Z" fill="#D9DFED"/>
<path d="M401.1 170C401.088 170 401.071 170 401.055 170L378.129 168.823L401.055 170C401.071 170 401.088 170 401.1 170ZM401.128 170C401.581 169.987 401.932 169.579 402 169.09C401.932 169.579 401.581 169.987 401.128 170ZM372.966 168.562L369.28 168.368L368.459 167.625L368 166C368.006 166 368.006 166 368.006 166L368.459 167.625L369.28 168.368L372.966 168.562Z" fill="#D97F91"/>
<path d="M401.99 168C402.006 167.898 402.001 167.796 401.985 167.688C402.001 167.796 402.006 167.898 401.99 168ZM390.21 133.034L389 133L390.21 133.034Z" fill="#C3C6D5"/>
<path d="M401.09 170C401.078 170 401.061 170 401.044 170L378.122 168.967L378.802 166.618C382.408 166.647 386.28 166.676 389.58 166.676C394.16 166.676 397.636 166.624 397.761 166.471C397.885 166.318 397.229 163.899 396.204 160.311C396.798 160.288 397.416 160.258 398.021 160.229C398.412 160.211 398.797 160.194 399.176 160.176L401.95 168.755C401.967 168.796 401.978 168.837 401.984 168.878C402.001 168.99 402.007 169.096 401.99 169.201C401.922 169.63 401.571 169.988 401.118 170C401.112 170 401.101 170 401.09 170ZM372.959 168.738L369.274 168.567L368.453 167.915L368 166.489C369.195 166.506 371.261 166.53 373.774 166.559L372.959 168.738ZM396.685 152.484C396.685 152.484 396.193 152.478 394.63 152.478C394.415 152.478 394.183 152.478 393.923 152.478C391.986 145.848 389.784 138.25 388.499 133L389.756 133.035L390.599 133.675L395.519 148.872L396.685 152.484Z" fill="#CED2E1"/>
<path d="M423.428 151.783C419.487 151.903 411.453 153.787 408.61 153.973C405.773 154.166 402.03 151.921 400.189 149.756C397.98 147.162 395.511 147 395.511 147L397.123 151.783C397.123 151.783 395.94 151.765 391.497 151.783C389.5 151.795 387.749 151.055 386.373 150.321C384.683 149.419 383.542 148.51 383.18 148.979C382.516 149.828 383.844 155.387 384.689 156.614C385.546 157.835 390.176 159.069 392.065 159.628C393.169 159.959 395.94 159.839 398.548 159.719C400.407 159.634 402.187 159.55 403.213 159.628C405.682 159.815 420.199 163.311 427.171 163.966C434.142 164.622 432.917 155.483 432.917 155.483L423.428 151.783Z" fill="#F0BB8F"/>
<path d="M429.05 90C437.378 93.4384 440.033 97.0639 442.681 105.274C445.33 113.484 447.219 141.927 447.787 149.757C448.355 157.581 447.787 161.213 446.083 161.973C444.379 162.739 438.138 164.458 426.593 163.885C426.593 163.885 429.242 154.342 423 152.044C423 152.044 430.186 151.283 432.835 152.044C432.835 152.044 428.193 140.43 426.303 132.413L429.05 90Z" fill="#EF384C"/>
<path d="M383.027 44.3467C382.287 49.9964 396.979 55.0107 402.761 58.7188C407.58 61.8031 401.646 76.8339 408.449 81.2125C415.252 85.5912 403.947 91.4916 408.449 98.9137C412.951 106.342 407.011 113 407.011 113C407.011 113 417.359 109.578 417.553 103.292C417.74 97.013 420.041 87.3053 428.47 90.7336C428.47 90.7336 430.583 80.0698 426.369 76.076C422.149 72.0763 419.66 61.9838 421.961 58.9403C424.256 55.8968 419.66 41.4316 414.101 41.8106C411.712 41.9738 409.746 38.6913 406.917 35.4088C403.16 31.0534 397.871 26.6981 388.04 30.3887L383.027 44.3467Z" fill="#A0593F"/>
<path d="M380.784 148.012C381.416 150.014 380.624 152.16 378.903 152.807C377.039 153.515 374.865 152.214 374.192 149.885C373.525 147.596 374.663 145.437 376.562 145.055C378.331 144.708 380.165 146.03 380.784 148.012Z" fill="white"/>
<path d="M367.99 164L366 160L368 164H367.99Z" fill="#FAF7E9"/>
<path d="M367.625 164L366.476 160.312L366 158.789L380.175 133L381.352 133.03L383 133.071L376.605 145.936C376.588 145.936 376.565 145.942 376.543 145.942C374.755 146.272 373.684 148.143 374.312 150.126C374.335 150.208 374.368 150.291 374.396 150.374L367.625 164Z" fill="#E4E9F2"/>
<path d="M374.428 151C374.383 150.888 374.329 150.777 374.292 150.665C373.277 147.984 375.009 145.455 377.9 145.008C377.937 145.008 377.973 145 378 145L374.428 151Z" fill="white"/>
<path d="M379.121 166C377.316 165.983 375.574 165.966 374 165.943L379.64 151.436C380.373 150.803 380.742 149.837 380.655 148.83L386.809 133L387.904 133.029L389 133.057L384.098 149.399C384.069 149.417 384.04 149.44 384.017 149.468C383.908 149.606 383.856 149.877 383.85 150.234L379.121 166Z" fill="#E4E9F2"/>
<path d="M378.419 168L374 167.81L374.698 166C376.02 166.02 377.484 166.034 379 166.049L378.419 168Z" fill="#DDE0EA"/>
<path d="M383 151C383.047 150.145 383.465 149.496 384.349 149.165C384.535 149.096 384.767 149.041 385 149L383 151Z" fill="#F5D0B1"/>
<path d="M379 151L380.976 149C381.144 149.773 380.426 150.514 379 151Z" fill="white"/>
<path d="M443.726 109C443.732 109.1 445.693 154.524 444.795 156.757C443.897 158.984 432.981 162.627 427.517 160.224L427.506 160.259C427.409 162.286 427 163.885 427 163.885C438.325 164.46 444.448 162.733 446.12 161.963C447.791 161.199 448.348 157.55 447.791 149.687C447.308 142.812 445.824 120.124 443.726 109Z" fill="#D9293C"/>
<path d="M412 84C412 82.807 411.344 81.6976 409.47 80.6718C409.457 80.6662 409.444 80.6606 409.43 80.6494C409.444 80.6606 409.457 80.6662 409.47 80.6718C411.344 81.6976 412 82.807 412 84ZM409.417 80.6439C409.404 80.6383 409.397 80.6328 409.384 80.6273C409.397 80.6328 409.404 80.6383 409.417 80.6439ZM409.371 80.6217C409.364 80.6161 409.351 80.6105 409.344 80.6049C409.351 80.6105 409.364 80.6161 409.371 80.6217ZM409.331 80.5938C409.318 80.5882 409.311 80.5826 409.298 80.577C409.311 80.5826 409.318 80.5882 409.331 80.5938ZM409.291 80.5714C409.278 80.5659 409.265 80.5547 409.252 80.5491C409.265 80.5547 409.278 80.5659 409.291 80.5714ZM409.252 80.5491C407.483 79.501 406.523 77.8899 406 76C406 76 406 76 406.007 76C406.523 77.8843 407.483 79.501 409.252 80.5491Z" fill="#BB7954"/>
<path d="M405.99 76C403.949 71.1667 406.327 64.5463 404 61C404.041 61.0337 404.082 61.073 404.122 61.1067C406.296 64.6924 403.99 71.2173 406 76C405.99 76 405.99 76 405.99 76Z" fill="#BD7D59"/>
<path d="M406.745 113C406.745 113 409.899 109.511 409.905 104.765C409.905 102.96 409.454 100.974 408.2 98.9293C407.398 97.6305 407.095 96.3726 407.095 95.1612C407.101 91.1718 410.458 87.6947 410.47 84.7245C410.47 83.4782 409.882 82.3192 408.2 81.2476C408.188 81.2418 408.177 81.2359 408.165 81.2243C408.159 81.2243 408.159 81.2243 408.153 81.2185C408.141 81.2126 408.135 81.2069 408.123 81.2011C408.123 81.2011 408.117 81.1953 408.111 81.1953C408.105 81.1895 408.093 81.1836 408.088 81.1778C408.082 81.172 408.082 81.172 408.076 81.1661C408.064 81.1603 408.058 81.1545 408.046 81.1486L408.04 81.1428C408.028 81.137 408.016 81.1253 408.004 81.1195C406.418 80.0246 405.557 78.3357 405.093 76.3672C403.923 71.411 405.265 64.6493 404 60.9336C407.155 66.3732 402.723 75.3421 414.391 76.9088C414.724 76.9554 415.039 76.9787 415.33 76.9787C423.011 76.9787 416.458 61.9528 421.877 59C421.265 59.7979 420.991 61.0733 420.991 62.5992C420.986 66.9031 423.184 73.164 426.338 76.1168C428.471 78.1086 429 81.7718 429 84.9342C429 88.0908 428.465 90.7582 428.465 90.7582C427.241 90.2632 426.148 90.0419 425.168 90.0419C419.31 90.0419 417.575 97.9334 417.415 103.303C417.219 109.581 406.745 113 406.745 113Z" fill="#954C31"/>
<path d="M377.621 92C379.074 86.526 375.867 77.3542 376.004 72.0566C376.01 72.0377 376.01 72.0189 376.015 72C375.846 77.285 379.08 86.5071 377.621 92Z" fill="#8A3F24"/>
<path d="M366 107C367.346 98.7526 371.976 98.5842 376.778 93.9421C376.783 93.9315 376.795 93.9263 376.801 93.9157C376.795 93.9263 376.783 93.9315 376.778 93.9421C371.976 98.5842 367.346 98.7526 366 107ZM376.819 93.8999L376.825 93.8947L376.819 93.8999ZM376.848 93.8737C376.848 93.8737 376.848 93.8737 376.848 93.8684C376.848 93.8737 376.848 93.8737 376.848 93.8737ZM377.876 92.3315V92.3262V92.3315ZM377.888 92.2999C377.888 92.2999 377.888 92.2948 377.894 92.2895C377.888 92.2948 377.888 92.2999 377.888 92.2999ZM377.9 92.2737C377.905 92.2632 377.905 92.2526 377.911 92.2421C377.905 92.2526 377.905 92.2632 377.9 92.2737ZM377.911 92.2421C377.941 92.1631 377.976 92.0842 378 92C377.976 92.0842 377.941 92.1631 377.911 92.2421Z" fill="#B13430"/>
<path d="M366.103 107C366.103 107 364 102.368 364 97.3453C364 95.547 364.266 93.6964 364.995 91.9913C367.008 87.3007 369.213 84.2105 369.208 80.614C369.208 79.258 368.891 77.8322 368.133 76.2202C366.629 73.0252 365.758 68.7769 365.747 65C365.973 70.7788 369.213 76.4064 372.171 76.4064C373.579 76.4064 374.924 75.1319 375.857 71.9893C375.71 76.8836 379.154 85.357 377.593 90.4142C377.571 90.5073 377.537 90.5946 377.508 90.6819C377.503 90.6935 377.503 90.7052 377.497 90.7168C377.491 90.7226 377.491 90.7285 377.491 90.7343C377.486 90.7401 377.486 90.7458 377.486 90.7458C377.48 90.7575 377.48 90.7633 377.474 90.7749V90.7808C377.237 91.4151 376.915 91.9855 376.491 92.4802C376.491 92.486 376.491 92.486 376.491 92.486C376.485 92.4918 376.474 92.4975 376.468 92.5092L376.462 92.515C376.457 92.5208 376.451 92.5266 376.445 92.5325C376.44 92.5441 376.428 92.5499 376.423 92.5616C371.826 97.6945 367.393 97.8807 366.103 107Z" fill="#954C31"/>
<path d="M163.206 89.184C167.125 89.0417 166.688 90.7019 174.496 86.7528C182.298 82.7978 184.694 82.1692 186.871 82.2641C189.049 82.359 194.455 79.1452 195.943 78.4751C197.42 77.8051 202.717 75.457 203.326 76.1152C203.935 76.7734 204.957 79.4298 201.976 81.185C198.994 82.9402 198.741 82.1514 196.661 84.0548C194.581 85.9523 192.065 87.417 191.944 88.0396C191.829 88.6623 195.788 92.884 195.271 94.3309C194.759 95.7718 187.584 102.063 182.229 101.826C176.869 101.589 177.811 100.996 172.795 101.292C167.78 101.601 162 103 162 103L163.206 89.184Z" fill="#F0BB8F"/>
<path d="M168.077 86.6245L129.713 93.4115C120.458 89.513 95.3156 63.7642 86.0541 63.059C83.1404 62.8333 74.7635 63.2452 71 64.4694C73.7114 73.7839 76.3071 84.0744 84.0018 90.0038C91.1589 95.5214 91.1589 95.5215 91.1589 95.5215C98.7842 97.654 120.62 115.555 128.569 113.891C135.373 112.464 170.268 103.414 170.268 103.414C175.182 94.6921 168.077 86.6245 168.077 86.6245Z" fill="#614F45"/>
<path d="M33.6279 392.85C20.3733 391.049 22.3914 384.363 24.6376 381.705C26.8837 379.053 32.6644 371.092 33.6279 366.842C34.5913 362.598 58.5009 364.364 58.5009 364.364C58.5009 364.364 59.6239 374.139 58.5009 375.534C57.3778 376.928 54.6528 376.743 54.1682 378.425C53.6893 380.113 46.6259 394.622 33.6279 392.85Z" fill="#582D11"/>
<path d="M104.313 362C111.741 367.532 120.44 376.824 125.88 378.797C131.32 380.77 133.133 383.537 131.32 388.083C129.507 392.628 118.633 393.421 112.65 392.828C106.662 392.235 101.409 386.109 98.3304 384.136C95.2461 382.157 90.3484 385.909 87.0891 382.55C83.824 379.197 84.372 374.845 84.0047 370.698C83.6432 366.546 104.313 362 104.313 362Z" fill="#582D11"/>
<path d="M57.8933 221.431C57.8933 221.431 82.5703 371.389 83.1048 373.606C83.6392 375.83 108.316 368.053 111 364.718C111 364.718 99.7362 275.856 98.6615 269.753C97.5868 263.644 92.7594 183.213 87.9321 164C87.9321 164 35.8942 169.223 23.0213 168.111C23.0213 168.111 22.4869 226.984 26.7739 255.311C31.0669 283.633 31.6013 364.718 32.1416 366.942C32.676 369.165 58.9622 370.277 60.5771 367.497C62.1804 364.718 57.8933 221.431 57.8933 221.431Z" fill="#C3C6D5"/>
<path d="M23 206L40.1812 208.194C40.496 209.896 43.4239 352.732 44 370C37.9126 369.696 32.4844 368.918 32.2409 367.918C31.6945 365.671 31.1541 283.759 26.8127 255.149C25.9516 249.445 23.5167 213.441 23 206Z" fill="#DBDFE8"/>
<path d="M70.0125 208L99 370.278C91.5934 372.859 83.4374 374.883 83.1353 373.607C82.7287 371.89 64.8597 263.367 58.1966 221.167L57 208.609L70.0125 208Z" fill="#DBDFE8"/>
<path d="M63.7589 61.4294C69.8965 62.0471 85.2433 62.9213 88.1071 64.6348C90.9709 66.354 96.2944 68.9066 92.5125 84.6773C91.0575 90.721 90.74 129.699 92.1719 143.412C93.6038 157.126 101 203.837 101 203.837C101 203.837 52.321 212.352 20.1956 205.026C20.1956 205.026 16.2752 135.877 15.6631 131.045C15.0511 126.22 12.7993 107.826 12.7993 107.826C12.7993 107.826 7.68369 115.752 4 113.106C4 113.106 11.6445 73.9771 13.8963 70.8591C16.1423 67.7411 41.7607 57 41.7607 57L63.7589 61.4294Z" fill="#614F45"/>
<path d="M46 208C37.7874 207.802 29.5693 207.098 22.1408 205.567C22.1126 205.561 22.0843 205.555 22.0561 205.549C22.0223 205.543 21.9884 205.532 21.9546 205.526C21.9151 205.52 21.8756 205.508 21.8305 205.503C21.8079 205.497 21.7797 205.491 21.7572 205.485C21.7008 205.474 21.65 205.462 21.5992 205.45C21.5823 205.45 21.5654 205.445 21.5541 205.445C21.3341 205.398 21.1141 205.346 20.8998 205.299C20.8942 205.299 20.8886 205.299 20.8773 205.299C20.8152 205.282 20.7475 205.27 20.6855 205.252C20.6742 205.252 20.6629 205.247 20.6517 205.247C20.5896 205.229 20.5332 205.217 20.4711 205.206C20.4598 205.2 20.443 205.2 20.4317 205.194C20.3696 205.182 20.3132 205.171 20.2511 205.153C20.2399 205.153 20.2286 205.148 20.2173 205.148C20.144 205.13 20.0763 205.113 20.003 205.095C20.003 205.06 19.6251 197.894 19.0949 187.893C18.9877 185.891 18.8749 183.772 18.7565 181.578C18.5816 178.283 18.3954 174.807 18.2036 171.274C18.0175 167.74 17.8201 164.149 17.6227 160.615C17.5607 159.434 17.4929 158.258 17.4309 157.099C16.5961 141.993 15.8178 133.162 15.5752 131.201C14.9886 126.462 12.8508 108.655 12.7775 108.026C12.7775 108.015 12.7775 108.009 12.7775 108.009C12.7775 108.009 12.1909 108.108 11.2828 108.108C11.249 108.108 11.2094 108.108 11.17 108.108L10.0927 108.055C8.69383 107.927 8.97585 107.427 10.6567 106.484C11.4407 106.047 11.7396 105.878 11.7284 105.878C11.7058 105.878 10.8654 106.327 9.98546 106.775C9.10555 107.223 8.18616 107.671 8.02258 107.671C8.0113 107.671 8.00564 107.665 8 107.665C8 107.665 11.2038 105.331 13.6631 102.054C13.8831 105.814 14.1707 109.551 14.5204 113.038C14.8758 116.519 15.3157 117.876 15.908 117.876C17.8822 117.876 21.509 102.514 29.0278 101C28.757 104.318 28.7683 109.522 29.6482 118.33C32.5474 147.366 40.5344 184.319 46 208Z" fill="#56463D"/>
<path d="M18.953 136.638C19.8062 142.253 20.9343 149.981 21.5012 165.265C22.0681 180.544 22.6351 189.198 27.7373 194.681C32.8395 200.158 31.992 202.752 35.1072 209.097C38.2224 215.443 38.5423 217.322 37.3804 218.333C36.2241 219.344 33.1595 217.322 32.0761 215.043C30.9985 212.764 28.4782 205.847 28.4782 205.847C28.4782 205.847 30.3361 214.032 30.5045 215.631C30.6673 217.236 36.0558 221.457 36.2185 223.731C36.3869 226.01 30.9311 224.576 28.4782 224.319C26.0253 224.068 19.0203 221.109 17.6564 218.756C16.2868 216.403 16.1633 209.897 15.9107 204.328C15.6638 198.759 13.6768 189.146 12.9303 186.022C12.1837 182.903 7.54176 158.2 6.2171 148.827C4.88682 139.46 4 132 4 132L18.953 136.638Z" fill="#F0BB8F"/>
<path d="M31.1488 197.547C31.1488 197.547 22.5844 200.212 11.5248 202C11.5248 202 1.5496 144.986 0.121229 137.114C-1.30131 129.248 10.2364 79.8599 11.6647 75.2081C13.0873 70.5563 19.2321 66.4012 26.8112 63L32 92.7343C32 92.7343 23.3132 127.816 22.9576 133.9C22.6019 139.978 31.1488 197.547 31.1488 197.547Z" fill="#614F45"/>
<path d="M86.1059 206L71 118.174L71.2197 118L92 205.236L86.1059 206Z" fill="#56463D"/>
<path d="M37.3023 55C37.3023 55 13.0253 65.0219 11.7741 70.3354C10.5288 75.6431 10.8016 96.5073 12.4798 112.279C14.1698 128.051 17.7396 100.215 28.9353 100.121C40.1368 100.04 68.3454 118 68.3454 118L89.1949 102.391C89.1949 102.391 93.3636 68.4498 91.5372 64.9753C89.6989 61.4601 86.0639 61.5882 71.085 57.4212C57.2446 53.5742 66.2521 56.1117 66.2521 56.1117L37.3023 55Z" fill="#614F45"/>
<path d="M76 62.1886L64.9869 90L40 55L62.0141 69.4993L76 62.1886Z" fill="#F8F3E0"/>
<path d="M71 58.725C71 58.725 64.7579 68.1775 63.1426 71C63.1426 71 50.4509 62.0399 48 53.5183L51.494 42L71 58.725Z" fill="#F0BB8F"/>
<path d="M63 70.0412L57.0118 80L38 55.0663L46.3799 51L63 70.0412Z" fill="#F8F3E0"/>
<path d="M51.5324 40L74 55.2419C74 55.2419 69.2812 61.2504 68.3397 63C63.2398 61.0076 55.8757 54.1586 54.5811 52.5958C52.9054 50.5473 51.9639 47.7456 51 44.9251L51.5324 40Z" fill="#F0BB8F"/>
<path d="M68.3319 63C63.2045 61.0946 55.8006 54.5446 54.499 53.05C52.8763 51.1624 51.9353 48.6021 51 46C51.0676 46.0238 51.1015 46.0358 51.1015 46.0358C52.3016 50.3825 56.4655 54.1159 58.7025 54.7471C60.5393 55.2532 67.1092 57.903 72 58.0757C71.8141 58.3019 71.6281 58.5401 71.4365 58.7842L71.3633 58.7544C71.3633 58.7544 71.1436 59.0819 70.7604 59.6416C69.7068 60.9933 68.7151 62.3271 68.3319 63Z" fill="#ECAC7C"/>
<path d="M76.8475 16.1009C80.6357 20.1682 80.9192 25.8267 81.4686 28.3146C82.018 30.7966 84.5338 36.212 83.8977 40.91C83.273 45.6138 81.0406 55.2817 76.2519 56.6877C71.4574 58.0878 61.8625 54.3618 59.5491 53.7601C57.2531 53.1468 52.9791 49.5192 51.7472 45.2956C51.7472 45.2956 50.6946 44.9484 49.4627 43.8954C48.2308 42.8366 45.5357 40.0653 44.5409 37.9709C43.7659 36.3104 43.5289 34.1523 45.877 34.3374C48.3407 34.5226 50.3534 37.456 50.3534 37.456C50.3534 37.456 50.7524 24.8315 57.1258 20.579C63.4935 16.3497 74.1929 13.2543 76.8475 16.1009Z" fill="#F0BB8F"/>
<path d="M77.0902 17.244C77.0902 17.244 79.9287 11.923 75.5783 7.16207C71.0664 2.2462 62.7718 1.10803 55.9892 2.62749C46.9835 4.65342 37.8582 14.7951 38.0017 21.9156C38.1451 29.2448 40.3682 30.2994 42.9079 34.9769C42.9079 34.9769 45.8302 32.5697 50.3719 39.9584L52.0391 40C52.0391 40 51.5431 24.7519 61.8456 19.0674C72.1361 13.4007 75.5305 15.1168 77.0902 17.244Z" fill="#4C3E35"/>
<path d="M77.59 17.6073C77.59 17.6073 82.5913 11.6905 78.1845 2.71685C78.1845 2.71685 74.4178 5.41472 66.2844 2.54894C58.1682 -0.305264 48 8.89995 48 8.89995L54.4645 21C54.4645 21 71.1771 11.2158 73.6005 12.831C76.024 14.4231 77.59 17.6073 77.59 17.6073Z" fill="#4C3E35"/>
<path d="M63 69.4727L71.0039 78L80 59.8462L71.9356 57C71.9356 57 65.6922 65.2554 63 69.4727Z" fill="#F8F3E0"/>
<path d="M57.0118 80L38 55.0663L46.3799 51L63 70.0412L57.5124 79.1661L57.0118 80Z" fill="#F1E0C5"/>
<path d="M71.0039 78L69.8 76.7157L63 69.4727C65.6922 65.2554 71.9356 57 71.9356 57L80 59.8462L71.0039 78Z" fill="#F1E0C5"/>
<path d="M129.028 113.895C135.763 112.515 170.301 103.766 170.301 103.766C171.732 101.29 172.115 98.8736 171.972 96.6865C164.962 98.3064 129.943 106.324 127.54 105.724C124.873 105.053 92 84 92 84V96.1356C99.5474 98.1973 121.16 115.504 129.028 113.895Z" fill="#4C3E35"/>
<path d="M212.34 82L212 79.7633L258.66 71L259 73.2431L212.34 82Z" fill="#B9A48E"/>
<path d="M212.339 76L212 74.075L255.655 67L256 68.9307L212.339 76Z" fill="#B9A48E"/>
<path d="M210.34 72L210 70.1647L256.66 63L257 64.8299L210.34 72Z" fill="#B9A48E"/>
<path d="M212.331 67L212 65.2975L255.663 59L256 60.7026L212.331 67Z" fill="#B9A48E"/>
<path d="M210.326 63L210 61.2105L249.674 55L250 56.7894L210.326 63Z" fill="#B9A48E"/>
<path d="M318 396.634C317.719 400.403 317.85 403.455 317.102 404.809C316.36 406.164 302.214 406.614 299.484 404.809C296.748 402.999 296.874 399.947 292.528 398.48C288.188 397.013 285.704 397.918 282.232 392.831C278.753 387.749 279.556 384.815 283.153 383.461C286.757 382.106 295.06 384.082 296.18 384.987C297.293 385.886 318 396.634 318 396.634Z" fill="#5273D2"/>
<path d="M275 400.536C274.725 404.343 274.842 407.422 274.115 408.797C273.388 410.166 259.534 410.62 256.861 408.797C254.189 406.968 254.306 403.883 250.057 402.401C245.803 400.918 243.376 401.833 239.971 396.692C236.572 391.557 237.903 388.813 241.425 387.444C244.947 386.069 253.005 388.245 254.095 389.159C255.191 390.074 275 400.536 275 400.536Z" fill="#5273D2"/>
<path d="M306.541 222.508C309.642 234.32 308.479 258.737 308.095 268.978C307.705 279.214 309.545 313.453 310.467 316.968C314.691 333.11 317.013 348.286 318.566 358.527C320.119 368.763 320.939 394.867 318.222 397.631C315.511 400.383 298.833 398.416 295.732 392.51C292.631 386.604 293.411 355.327 289.542 340.36C285.656 325.4 284.051 321.093 283.272 312.801C282.492 304.509 277.695 269.607 277.695 269.607C277.695 269.607 272.801 308.839 273.574 317.503C274.348 326.168 277.03 336.456 277.03 354.966C277.03 373.476 276.331 399.231 276.331 400.808C276.331 402.379 270.955 405.696 262.604 402.944C254.26 400.186 252.672 398.044 252.672 396.077C252.672 394.11 252.597 348.664 250.654 338.428C248.717 328.187 247.198 322.275 247.198 312.801C247.198 303.328 243.96 238.993 244 226.983C244.035 217.02 306.541 222.508 306.541 222.508Z" fill="#614F45"/>
<path d="M318.173 397.668C320.964 394.912 320.122 368.881 318.527 358.675C316.931 348.462 314.546 333.329 310.206 317.233C309.258 313.728 307.368 279.586 307.769 269.38C308.163 259.167 309.358 234.82 306.173 223.041L305.672 223L261.357 236.416C263.506 246.419 259.902 311.303 261.357 326.564C262.617 339.846 267.469 386.393 267.127 403.998C272.126 404.068 275.135 401.985 275.135 400.836C275.135 399.263 275.854 373.581 275.854 355.124C275.854 336.666 273.098 326.407 272.303 317.767C271.508 309.127 276.537 270.006 276.537 270.006C276.537 270.006 283.291 272.786 294.167 273.476C294.167 273.476 297.658 315.109 300.826 322.043C303.994 328.983 315.559 385.523 312.244 398.886C315.041 398.915 317.308 398.521 318.173 397.668Z" fill="#4C3E35"/>
<path d="M231 181C237.251 178.033 250 168.286 250 168.286L247.195 147L231 181Z" fill="#B0B54F"/>
<path d="M278 268.788C278 268.788 282.064 247.741 281.171 235.139L294.256 233L296 274.252L292.108 286L278 268.788Z" fill="#614F45"/>
<path d="M291.641 102.802C295.178 106.304 307.582 105.717 311.13 116.811C314.673 127.9 312.899 142.496 308.175 155.925C303.451 169.354 302.27 186.28 305.807 199.709C309.356 213.138 311.13 224.226 310.537 225.98C309.944 227.735 291.641 238.823 268.609 235.32C245.577 231.818 241.44 221.897 241.44 221.897C241.44 221.897 245.577 195.626 247.351 186.867C249.12 178.108 247.939 156.512 247.939 156.512C247.939 156.512 235.367 176.716 230.881 180.121C225.081 184.52 215.854 179.471 214.47 174.605C213.097 169.74 214.871 163.902 218.018 159.232C221.166 154.562 228.74 141.622 231.992 132.863C235.244 124.11 236.716 114.183 247.054 111.848C257.387 109.513 262.82 106.304 263.501 104.55C264.176 102.802 267.428 99 278.645 99C289.867 99 291.641 102.802 291.641 102.802Z" fill="#C9C94F"/>
<path d="M307 229C308.117 228.486 308.759 228.086 308.869 227.865C308.958 227.689 309 227.401 309 227C309 227.401 308.958 227.689 308.869 227.865C308.759 228.086 308.117 228.486 307 229Z" fill="#D4D497"/>
<path d="M294 235C300.195 233.18 304.808 230.633 307 229C304.808 230.633 300.2 233.18 294 235Z" fill="#7E7A42"/>
<path d="M240 223C240 222.994 240 222.994 240 222.994C240 222.994 240 222.994 240 223ZM277.988 99C277.994 99 277.994 99 278 99C277.994 99 277.994 99 277.988 99Z" fill="#D4D497"/>
<path d="M280 236C285.134 235.859 289.861 235.481 294 235C289.861 235.481 285.134 235.859 280 236Z" fill="#89824A"/>
<path d="M276.933 236C276.933 236 276.933 236 276.927 236C273.966 236 270.886 235.793 267.716 235.321C244.22 231.819 240 221.898 240 221.898C240 221.892 240 221.892 240 221.892C240.018 221.789 240.421 219.264 241.033 215.56C253.484 221.363 266.998 222.968 277.248 222.968C285.948 222.968 292.299 221.806 293.64 221.076C296.792 219.356 294.032 186.148 291.878 175.578C289.723 165.007 295.575 120.383 297.189 119.727C296.756 119.9 296.169 120.141 295.575 120.377C295.415 120.446 295.029 120.481 294.459 120.481C289.337 120.481 269.135 117.715 257.811 109.968C257.811 109.968 263.508 104.993 270.019 99.8281C272.078 99.345 274.613 99.0057 277.871 99C277.877 99 277.877 99 277.883 99C277.907 99 277.93 99 277.954 99C289.403 99 291.213 102.802 291.213 102.802C294.821 106.304 307.475 105.717 311.095 116.812C312.406 120.837 313.006 125.329 313 130.062C312.994 138.35 311.148 147.374 308.08 155.926C305.16 164.058 303.569 173.467 303.569 182.611C303.569 188.57 304.24 194.413 305.664 199.71C308.822 211.431 310.602 221.375 310.602 224.877C310.602 225.389 310.567 225.757 310.489 225.981C310.395 226.263 309.843 226.775 308.881 227.431C306.388 229.139 301.142 231.802 294.097 233.705C290.245 234.746 285.848 235.563 281.07 235.868C279.729 235.954 278.352 236 276.957 236C276.951 236 276.945 236 276.933 236ZM297.67 119.532L297.516 119.595L297.67 119.532Z" fill="#BCBF4F"/>
<path d="M270.887 46.154C282.838 44.8807 293.086 51.4759 296.481 66.9196C299.87 82.3632 299.611 95.1429 303 102.865C303 102.865 296.74 113.515 276.63 112.981C256.531 112.447 250 105.259 250 105.259C250 105.259 252.353 86.3355 252.094 79.0244C251.83 71.7133 248.435 48.548 270.887 46.154Z" fill="#EF7A2B"/>
<path d="M303 102.933C299.611 95.2636 299.87 82.5703 296.481 67.231C294.824 59.7654 291.527 54.4152 287.217 51C303.65 70.4189 269.788 99.3082 252.094 79.2541C252.353 86.5157 250 105.311 250 105.311C250 105.311 256.531 112.45 276.63 112.981C296.74 113.511 303 102.933 303 102.933Z" fill="#E37022"/>
</svg>
