<svg width="602" height="471" viewBox="0 0 602 471" fill="none" xmlns="http://www.w3.org/2000/svg">
<path d="M571.94 253.109C607.567 263.275 612.671 364.829 581.086 404.701C568.314 420.833 558.664 420.885 542.66 421.431C526.392 421.986 514.113 421.97 502.574 421.952C494.378 421.934 486.552 421.923 477.94 422.115C443.122 422.898 411.719 425.434 405.06 415.714C397.24 404.313 395.34 369.594 422.877 352.394C450.403 335.193 478.779 326.594 494.167 307.834C509.549 289.075 527.108 240.325 571.94 253.109Z" fill="#FFD765"/>
<path d="M509.447 422C507.313 422 505.225 421.993 503.154 421.993C502.851 421.986 502.542 421.986 502.238 421.986C501.358 411.236 497.835 400.259 493 390.811C538.038 377.059 576.089 345.974 587.153 264C608.126 294.272 607.432 370.505 581.531 404.217C581.525 404.228 581.519 404.242 581.513 404.253C581.496 404.269 581.472 404.299 581.455 404.317C581.443 404.336 581.437 404.347 581.426 404.358C581.408 404.381 581.396 404.399 581.379 404.422C581.361 404.44 581.35 404.457 581.332 404.475C581.321 404.497 581.309 404.509 581.297 404.527C581.268 404.561 581.239 404.598 581.21 404.632C568.513 420.866 558.918 420.919 543.007 421.469C529.75 421.929 519.153 422 509.447 422Z" fill="#FFD049"/>
<path d="M471 326C471.006 325.989 471.017 325.978 471.023 325.971C476.891 322.587 482.288 319.021 487 315C486.954 315.051 486.901 315.107 486.855 315.165C482.178 319.13 476.821 322.652 471 326Z" fill="#FFE496"/>
<path d="M472.572 350C472.572 350 474.279 328.242 477.922 323.395C477.922 323.395 471.307 326.914 468 331.931C468 331.931 468.563 329.238 470.648 326.172C476.652 322.72 482.177 319.088 487 315C476.82 326.843 472.572 350 472.572 350Z" fill="#FFD049"/>
<path d="M135.632 200L130 -4.35511e-06L406 1.98715L394.023 200H135.632Z" fill="#A39484"/>
<path d="M134 5.99999L139.356 194H388.623L400 7.89995L134 5.99999Z" fill="#F8F3E0"/>
<path d="M194.503 112V145.496L164.322 131.027C162.217 135.413 161 140.305 161 145.496C161 164.002 175.999 179 194.503 179C213.007 179 228 164.002 228 145.496C228 126.994 213.007 112 194.503 112Z" fill="#B0B54F"/>
<path d="M190 140V107C177.209 107 166.192 114.667 161 125.748L190 140Z" fill="#FFD765"/>
<path d="M158 30L162.567 89H173V30H158Z" fill="#EF384C"/>
<path d="M177 19L180.026 89H190V19H177Z" fill="#8F78D6"/>
<path d="M196 49L197.773 89H207.521L209 49H196Z" fill="#FFD765"/>
<path d="M212 35L213.772 89H223.525L225 35H212Z" fill="#A8CDF7"/>
<path d="M252 24H245V19H252V24Z" fill="#EF384C"/>
<path d="M252 50H245V43H252V50Z" fill="#8F78D6"/>
<path d="M252 76H245V69H252V76Z" fill="#FFC92E"/>
<path d="M252 101H245V95H252V101Z" fill="#A8CDF7"/>
<path d="M302 35H259V32H302V35Z" fill="#BBAFA3"/>
<path d="M330 22H259V19H330V22Z" fill="#BBAFA3"/>
<path d="M317 27H265V24H317V27Z" fill="#BBAFA3"/>
<path d="M330 35H313V32H330V35Z" fill="#BBAFA3"/>
<path d="M302 60H275V58H302V60Z" fill="#BBAFA3"/>
<path d="M330 46H259V43H330V46Z" fill="#BBAFA3"/>
<path d="M317 53H259V50H317V53Z" fill="#BBAFA3"/>
<path d="M330 60H313V58H330V60Z" fill="#BBAFA3"/>
<path d="M302 85H259V82H302V85Z" fill="#BBAFA3"/>
<path d="M330 72H259V69H330V72Z" fill="#BBAFA3"/>
<path d="M317 79H265V76H317V79Z" fill="#BBAFA3"/>
<path d="M330 85H313V82H330V85Z" fill="#BBAFA3"/>
<path d="M291 111H259V108H291V111Z" fill="#BBAFA3"/>
<path d="M330 104H259V101H330V104Z" fill="#BBAFA3"/>
<path d="M330 111H301V108H330V111Z" fill="#BBAFA3"/>
<path d="M281 95H259V98H281V95Z" fill="#BBAFA3"/>
<path d="M287 95V98H330V95H287Z" fill="#BBAFA3"/>
<path d="M317 134H245V128H317V134Z" fill="#BBAFA3"/>
<path d="M290 161H245V158H290V161Z" fill="#BBAFA3"/>
<path d="M317 147H245V144H317V147Z" fill="#BBAFA3"/>
<path d="M302 154H251V151H302V154Z" fill="#BBAFA3"/>
<path d="M317 161H300V158H317V161Z" fill="#BBAFA3"/>
<path d="M317 170H256V167H317V170Z" fill="#BBAFA3"/>
<path d="M377 46H356V19H377V46Z" fill="#FFD765"/>
<path d="M377 95H356V46H377V95Z" fill="#C9C94F"/>
<path d="M377 117H356V95H377V117Z" fill="#8F78D6"/>
<path d="M377 117H356V170H377V117Z" fill="#A8CDF7"/>
<path d="M239 126.379C235.91 124.577 227.713 122.423 225.633 119.601C223.559 116.774 222.866 116.291 220.267 113.71C217.656 111.135 216.679 106.957 214.496 107C212.312 107.051 213.433 111.758 214.987 113.452C216.541 115.152 217.962 118.018 216.986 118.198C216.015 118.371 211.706 118.371 209.811 117.918C207.628 117.396 197.761 114.562 196.548 115.73C195.272 116.964 196.404 118.08 198.108 118.917C199.812 119.752 207.847 121.323 208.373 121.722C208.719 121.967 204.329 121.122 201.533 120.363C198.737 119.611 196.178 119.467 196.311 121.272C196.479 123.431 203.26 124.818 203.422 125.447C203.578 126.069 204.664 128.885 206.547 129.109C206.547 129.109 208.061 131.808 209.938 131.993C211.816 132.179 214.109 132.115 216.83 133.305C218.817 134.168 222.011 133.788 224.564 133.597C225.506 133.524 232.686 137.944 233.351 137.995C236.88 138.282 239 126.379 239 126.379Z" fill="#F0BB8F"/>
<path d="M380.526 381.692C380.688 384.908 384.716 388.141 387.508 391.058C390.3 393.972 391.071 395.823 388.129 399.506C385.18 403.194 372.423 403.92 367.385 401.884C363.978 400.497 360.693 387.981 358.064 387.214C355.429 386.45 354.715 386.801 354.222 384.245C353.723 381.685 354.222 376 354.222 376L380.526 381.692Z" fill="#4C3E35"/>
<path d="M327.442 374.599C327.854 376.791 328.842 379.57 326.47 381.556C324.093 383.541 321.721 384.131 319.849 384.131C317.966 384.131 317.666 387.704 314.699 390.479C311.739 393.259 308.573 395.245 301.946 395.84C295.325 396.431 289.492 395.245 288.798 394.548C288.109 393.857 287.415 388.2 288.798 386.214C290.181 384.23 296.513 382.147 297.596 380.952C298.685 379.766 301.357 376.595 302.046 374.009C302.74 371.435 327.442 374.599 327.442 374.599Z" fill="#4C3E35"/>
<path d="M363.787 187C364.736 195.588 367.653 230.219 369.826 251.253C371.578 268.275 375.819 297.36 375.819 302.205C375.819 307.057 383 380.956 383 380.956C383 380.956 382.227 383.569 377.558 382.224C369.387 379.872 357.883 382.453 354.116 382.994C350.356 383.533 353.243 347.977 348.405 321.59C343.561 295.212 327.974 227.354 327.974 227.354C327.974 227.354 326.902 279.592 327.974 291.978C329.052 304.364 329.591 372.478 329.052 374.092C328.513 375.713 321.525 376.246 317.219 374.633C314.935 373.776 310.22 374.209 306.184 374.644C302.628 375.025 299.588 375.407 299.213 374.903C298.405 373.821 300.022 354.977 301.363 344.473C302.71 333.978 300.66 305.439 298.997 297.36C297.333 289.285 295.447 261.287 294.914 252.126C294.375 242.979 294 187 294 187H363.787Z" fill="#6F8FEA"/>
<path d="M316.69 367.161C316.099 368.89 299.815 374.586 300.092 369.6C299.951 372.753 299.962 374.945 300.2 375.294C300.948 376.376 312.88 373.406 316.858 375.023C320.841 376.64 327.306 376.105 327.804 374.481C328.303 372.864 327.804 304.608 326.807 292.196C325.816 279.785 326.807 227.438 326.807 227.438L324.97 187H309.515C309.515 187 309.705 247.659 311.808 266.025C313.905 284.394 317.286 365.431 316.69 367.161Z" fill="#5273D2"/>
<path d="M377.429 382.224C382.208 383.569 383 380.957 383 380.957C383 380.957 375.649 307.057 375.649 302.205C375.649 297.36 371.307 268.268 369.514 251.253C367.29 230.219 364.303 195.588 363.332 187H344C346.351 202.613 361.635 297.47 363.602 305.895C365.731 315.031 369.694 375.848 369.694 375.848C369.694 375.848 358.115 376.593 351.669 378.007C352.017 381.227 352.539 383.118 353.432 382.994C357.288 382.453 369.065 379.872 377.429 382.224Z" fill="#5273D2"/>
<path d="M450.671 204.242C450.56 203.215 439.649 193.656 439.835 193.425C440.021 193.203 442.789 195.401 446.689 198.305C450.589 201.212 451.599 201.562 451.988 199.77C452.377 197.978 443.166 191.194 441.042 189.133C438.918 187.076 436.138 183.999 436.724 182.855C437.316 181.707 439.992 183.079 443.277 183.849C446.556 184.617 448.529 183.028 448.726 182.133C448.924 181.238 443.828 180.083 440.032 178.538C436.242 176.994 434.577 177.172 431.002 177.149C428.831 177.131 427.037 176.667 425.668 176.189C424.304 175.519 422.969 174.841 421.814 174.164C418.256 172.085 393.642 144.651 393.642 144.651C392.551 144.371 391.42 144.187 390.265 144.089C382.226 143.396 373.48 146.879 372 150.492C374.397 154.636 400.096 172.653 409.881 178.928C411.489 179.957 413.822 182.229 414.211 182.666C415.598 184.216 417.188 184.164 419.301 186.45L419.818 187.145C421.205 189.453 424.043 194.477 426.016 195.637C428.001 196.796 430.166 198.364 433.05 201.591C435.929 204.812 439.162 207.815 440.439 206.763C441.373 205.994 437.548 201.58 435.743 199.604C441.477 205.835 444.954 208.205 446.358 206.424C447.02 205.592 436.445 195.917 436.892 195.74C437.339 195.567 446.474 205.444 448.541 206.265C450.108 206.89 450.787 205.276 450.671 204.242Z" fill="#F0BB8F"/>
<path d="M335.408 68C334.343 74.4461 340.912 78.6034 346.387 80.4029C351.868 82.1886 366.467 79.685 372.311 88.6439C378.154 97.6093 389.103 138.481 392.385 141.71C395.678 144.932 425 171.673 425 171.673C425 171.673 423.064 184.729 413.202 188.669C413.202 188.669 375.96 157.837 371.942 152.105C367.929 146.368 359.167 123.422 359.167 123.422C359.167 123.422 359.899 143.857 360.992 151.75C362.086 159.636 367.508 181.33 363.858 186.713C363.858 186.713 326.938 203.109 294.171 186.713C294.171 186.713 291.861 170.877 294.171 153.536C295.049 146.989 293.528 131.67 293.528 131.67C293.528 131.67 272.266 156.051 268.984 155.333C265.697 154.615 245.342 149.637 233.287 141.389C233.287 141.389 231.24 129.693 238.083 125.672L263.943 133.18C263.796 134.295 278.542 115.105 281.127 102.613C282.239 97.2187 286.76 90.7524 294.007 87.8519C301.254 84.9576 308.432 83.9054 312.222 79.0296C316.018 74.1475 335.408 68 335.408 68Z" fill="#614F45"/>
<path d="M301 43.609C301.752 47.6515 302.509 54.7194 304.998 57.4893C307.486 60.2663 311 50.8136 311 50.8136L306 42L301 43.609Z" fill="#B38644"/>
<path d="M340.971 78.0976C337.259 75.8405 334.296 72.4877 335.044 68C335.044 68 315.514 74.1785 311.691 79.0854C311.184 79.7302 310.619 80.2965 310 80.8287L310.006 80.8333C310.006 80.8333 314.536 88.7593 323.173 87.9407C331.81 87.1152 341 78.1496 341 78.1496L340.971 78.0976Z" fill="#4C3E35"/>
<path d="M304.338 44.4366C303.148 46.969 305.527 53.0589 304.936 54.7877C304.338 56.5148 304.28 63.8398 307.027 69.5776C309.774 75.3137 324.594 74.9969 324.594 74.9969L331.639 70.935L335.506 59.7132L337 43.0058L324.887 36L304.338 44.4366Z" fill="#F0BB8F"/>
<path d="M326.499 35.8156C325.799 42.0546 334.583 48.8362 333.705 51.5889C332.826 54.3417 333.877 60.7653 330.891 65.9049C327.906 71.0452 324.088 69.9699 324.088 69.9699C324.088 69.9699 320.379 64.5184 315.458 65.0641C310.543 65.6171 311.732 68.3464 310.153 69.4493C308.568 70.5528 307.184 69.2034 307.184 69.2034C307.184 69.2034 306.564 70.8107 307.598 72.9451C309.01 75.8705 312.444 79.8113 314.913 82.236C319.087 86.3309 325.448 82.236 327.906 80.5796C330.369 78.9303 338.321 68.9317 339.016 65.2021C339.71 61.473 338.218 58.2633 338.218 58.2633C338.218 58.2633 339.906 55.6677 340.405 51.5284C340.899 47.3795 341.892 41.6821 339.211 36.8184C336.535 31.9408 330.88 29.0454 327.705 30.2874L326.499 35.8156Z" fill="#B38644"/>
<path d="M326.722 37.4571C326.722 37.4571 324.859 38.9396 322.079 38.3403C319.299 37.7455 319.097 44.8188 309.947 45.9206C300.792 47.0114 294 36.5065 294 36.5065C294 36.5065 302.435 37.9417 305.108 33.8588C307.786 29.7759 312.305 24.9921 320.74 26.1862C329.174 27.3802 327.936 30.5713 327.936 30.5713L326.722 37.4571Z" fill="#B38644"/>
<path d="M336.066 55.8861C336.041 54.6956 335.764 50.6551 336.567 50.0474C337.369 49.4309 336.811 54.9975 336.811 57.047C336.811 59.0902 337.225 60.838 336.768 61.7539C336.308 62.6768 335.982 60.7724 336.017 59.8564C336.052 58.9451 336.09 57.0766 336.066 55.8861Z" fill="#F0BB8F"/>
<path d="M316.087 68.0233C320.246 68.3224 322.489 70.4433 322.946 71.44C323.397 72.4372 320.95 72.6399 317.737 72.9338C314.023 73.2732 311.224 72.225 311.032 71.6579C310.84 71.095 311.384 67.6872 316.087 68.0233Z" fill="#F0BB8F"/>
<path d="M293.676 111C293.676 111 271.938 149.171 269.543 150.235C267.148 151.302 235.094 138.978 233.472 138.384L233 138.639C233.071 140.354 233.248 141.578 233.248 141.578C245.405 150.099 265.933 155.242 269.248 155.984C272.558 156.726 294 131.537 294 131.537L293.676 111Z" fill="#4C3E35"/>
<path d="M380.698 148.849C376.948 142.869 359 102 359 102V122.813C359 122.813 367.67 146.441 371.64 152.349C375.617 158.251 412.467 190 412.467 190C414.707 189.074 416.518 187.634 418 185.992C412.698 181.047 384.096 154.273 380.698 148.849Z" fill="#4C3E35"/>
<path d="M359.026 141C359.54 150.888 358.826 164.442 350.253 167.247C341.007 170.273 326.05 171.208 320.819 170.05C320.819 170.05 326.216 174.2 347.946 173.043C369.671 171.891 331.658 192.37 294.617 178.787L294 178.571C294.291 183.598 294.742 186.769 294.742 186.769C326.736 203.039 362.783 186.769 362.783 186.769C366.347 181.427 361.053 159.9 359.979 152.074C359.62 149.4 359.294 145.275 359.026 141Z" fill="#4C3E35"/>
<path d="M412 354H343.202L338 298H406.81L412 354Z" fill="#585A88"/>
<path d="M415 350H345.583L341 300H410.411L415 350Z" fill="white"/>
<path d="M341.795 348.933H356.793V300.231H341.795V348.933Z" fill="#E3F0FF"/>
<path d="M409.562 304.112L413.764 350H415L410.411 300H341L341.375 304.112H409.562Z" fill="#A8CDF7"/>
<path d="M394.97 256C394.97 256 394.608 265.171 392.265 270.107L387 288.947L403 294V262.011L394.97 256Z" fill="#FFC191"/>
<path d="M410.67 256C410.67 256 411.021 265.171 413.27 270.107L418 287.598L403 294V262.011L410.67 256Z" fill="#FFC191"/>
<path d="M395 260.494V260.474C395.157 259.067 395.262 257.861 395.315 257.045L395.402 256L403.141 262.105L410.53 256.263L410.956 256.506C411.009 257.599 411.201 260.28 411.662 263.218L412 265.128C412 265.128 410.787 268 404.523 268C398.855 268 395 260.494 395 260.494Z" fill="#F09F5B"/>
<path d="M416 255C416 255 417.814 253.342 418 252.532L416.667 252L416 255Z" fill="#622818"/>
<path d="M390 255C390 255 387.263 253.342 387 252.532L389.005 252L390 255Z" fill="#622818"/>
<path d="M419.122 242.934C419.122 242.934 421.571 232.159 418.715 226.158C415.616 219.698 410.996 216 402.51 216C394.024 216 389.392 219.698 386.31 226.158C383.442 232.159 385.886 242.934 385.886 242.934C382.032 242.137 382.757 246.475 383.965 248.428C384.969 250.057 384.998 250.243 385.602 252.003C386.461 254.579 388.452 252.801 388.452 252.801C389.612 256.103 390.425 256.889 395.045 261.255C399.062 265.041 400.478 265 402.51 265C404.535 265 405.905 265.041 409.968 261.255C414.589 256.894 415.389 256.103 416.556 252.801C416.556 252.801 418.547 254.579 419.424 252.003C420.021 250.243 420.039 250.057 421.031 248.428C422.25 246.475 422.958 242.137 419.122 242.934Z" fill="#FFC191"/>
<path d="M414.026 215.258C404.656 210.177 396.77 215.258 396.77 215.258C377.355 217.499 384.153 243 384.153 243H384.165C384.579 242.426 385.356 242.122 386.588 242.374C386.329 240.517 388.533 238.269 391.97 235.619C395.406 232.955 396.77 229.09 396.77 229.09C396.77 229.09 400.235 235.882 408.846 237.668C417.474 239.458 419.287 240.722 419.546 242.374C420.795 242.122 421.567 242.426 421.975 243C421.975 243 427.207 222.434 414.026 215.258Z" fill="#7C3322"/>
<path d="M390 255C390 255 387.278 253.339 387 252.532L388.986 252L390 255Z" fill="#622818"/>
<path d="M416 255C416 255 417.815 253.339 418 252.532L416.67 252L416 255Z" fill="#622818"/>
<path d="M391.977 218.034C401.348 213.457 409.228 218.034 409.228 218.034C428.649 220.043 421.845 243 421.845 243H421.834C421.425 242.475 420.648 242.204 419.41 242.435C419.669 240.764 417.465 238.734 414.034 236.346C410.586 233.95 409.228 230.48 409.228 230.48C409.228 230.48 405.763 236.594 397.158 238.19C388.529 239.806 386.71 240.948 386.457 242.435C385.202 242.204 384.431 242.475 384.022 243C384.022 243 378.796 224.489 391.977 218.034Z" fill="#7C3322"/>
<path d="M393.951 266C393.951 266 392.632 269.314 387.836 270.52C383.035 271.721 383 284.555 383 284.555L390.363 311.757L402 318V272.071L393.951 266Z" fill="#FFC191"/>
<path d="M410.057 266C410.057 266 411.377 269.314 416.174 270.52C420.965 271.721 421 284.555 421 284.555L413.635 311.757L402 318V272.071L410.057 266Z" fill="#FFC191"/>
<path d="M432.747 343.86C431.917 338.241 430.674 328.518 430.91 322.2L430.933 321.568C430.98 320.802 431.074 317.436 431.08 313.366L433.018 322.687L457 324.226C457 318.063 451.145 302.933 448.771 293.487C445.501 280.413 443.445 276.919 430.674 275.257C423.664 274.337 418.244 272.213 418.244 272.213L418.232 272.24L417.284 272C418.733 276.942 385.179 277.036 386.663 272.053C386.092 272.187 385.214 272.464 384.331 272.746C379.247 274.044 364.496 272 361.533 285.934C359.666 294.699 351 321.703 351 333.002C353.097 334.729 358.051 332.023 363.017 329.325C367.824 326.709 372.643 324.097 374.887 325.497C375.636 323.963 376.101 322.33 376.419 320.72C376.643 324.455 367.164 371.276 363.335 377.007C359.548 382.722 359.153 390.812 360.29 397.094C361.403 403.358 363.801 405.276 371.382 408L402.957 406.911C402.957 406.911 439.428 407.981 442.332 402.601C445.825 396.086 445.366 381.533 441.56 374.887C437.478 367.782 432.747 343.86 432.747 343.86Z" fill="#EF384C"/>
<path d="M414.519 226.406C413.657 226.083 406.163 225.327 399.548 227.38C394.184 229.039 388.679 238.274 386.761 241.757C386.873 242.328 386.956 242.743 386.956 242.743L386.248 242.696L386 243.178C387.717 245.284 389.499 252.727 389.499 252.727V252.745L389.564 252.692C390.744 256.024 391.57 256.817 396.268 261.221C400.351 265.041 401.791 265 403.856 265C405.915 265 407.308 265.041 411.439 261.221C416.136 256.822 416.95 256.024 418.136 252.692L418.425 252.903C419.505 249.894 420.378 246.562 420.744 242.743C422.414 225.185 415.392 226.727 414.519 226.406Z" fill="#7C3322"/>
<path d="M419.965 242.123C419.965 242.123 422.551 230.457 419.543 223.984C416.298 216.989 411.431 213 402.507 213C393.578 213 388.716 216.989 385.471 223.984C382.446 230.457 385.032 242.123 385.032 242.123C380.987 241.262 381.742 245.952 383.015 248.067C384.074 249.832 384.091 250.011 384.716 251.937C385.64 254.719 387.719 252.803 387.719 252.803C388.947 256.365 389.815 257.203 394.654 261.935C398.885 266.042 400.366 266 402.507 266C404.631 266 406.084 266.042 410.355 261.935C415.216 257.227 416.05 256.365 417.278 252.803C417.278 252.803 419.374 254.719 420.281 251.937C420.923 250.011 420.934 249.832 421.988 248.067C423.255 245.952 424.016 241.262 419.965 242.123Z" fill="#965438"/>
<path d="M351.579 333C351.371 332.915 351.174 332.796 351 332.646C351 332.62 351 332.597 351 332.573C351 332.562 351 332.555 351 332.55C351 332.531 351 332.513 351 332.496C351 332.484 351 332.477 351 332.465C351 332.454 351 332.435 351 332.416C351 332.405 351 332.4 351 332.388C351 332.369 351 332.351 351 332.334C351 332.327 351 332.32 351 332.315C351 332.285 351 332.262 351 332.238C351 332.208 351 332.182 351 332.154C351.006 332.147 351.006 332.142 351.006 332.135C351.006 332.116 351.006 332.1 351.006 332.074C351.006 332.069 351.006 332.058 351.006 332.051C351.006 332.034 351.006 332.009 351.006 331.992C351.006 331.985 351.006 331.978 351.006 331.973C351.006 331.95 351.006 331.931 351.012 331.908C351.012 331.9 351.012 331.896 351.012 331.889C351.012 331.835 351.012 331.781 351.012 331.727C351.017 331.72 351.017 331.72 351.017 331.72C351.017 331.692 351.017 331.666 351.017 331.642C351.017 331.638 351.017 331.631 351.017 331.631C351.017 331.608 351.017 331.584 351.023 331.558C351.023 331.554 351.023 331.546 351.023 331.542C351.023 331.516 351.023 331.488 351.023 331.462C351.319 324.652 353.953 313.483 356.53 303.416C356.646 302.966 356.762 302.511 356.878 302.065C359.159 302.061 361.539 302.042 364 302C358.945 311.303 355.198 322.112 351.579 333Z" fill="#DD202F"/>
<path d="M449 295C448.632 294.651 448.296 294.318 448 294C448.296 294.318 448.632 294.651 449 295Z" fill="#EC939D"/>
<path d="M452 308C449.005 301.94 445.646 296.362 441.666 291.647C441.364 286.645 440.469 280.369 438 277C441.851 278.509 443.889 280.952 445.507 285.253L445.898 286.366L446.083 286.914C446.665 288.802 447.231 290.971 447.841 293.448C448.048 294.316 448.283 295.224 448.54 296.175C449.52 299.8 450.802 303.955 452 308Z" fill="#DD202F"/>
<path d="M402.769 213.029C389.196 214.526 379.401 218.299 377.002 255.634L376 267.783C376 267.783 382.732 274.285 401.664 273.99C420.596 273.698 427.391 267.783 427.391 267.783C427.391 267.783 434.129 211.539 402.769 213.029Z" fill="#614F45"/>
<path d="M392.136 278C387.69 276.623 384.161 274.807 382 273.034C383.098 272.935 384.055 272.831 384.801 272.661C385.588 272.436 386.363 272.219 386.927 272.095C386.986 272.105 387.044 272.116 387.103 272.126C387.091 272.193 387.08 272.259 387.08 272.322C387.068 274.331 394.608 275.322 402.201 275.322C409.912 275.322 417.681 274.301 417.693 272.282C417.699 272.188 417.681 272.1 417.652 272L418.597 272.213L418.609 272.188C418.609 272.188 424.012 274.071 431 274.887C428.51 276.121 426.003 277.112 423.507 277.891C419.055 276.577 414.105 275.862 408.555 275.862C402.383 275.862 396.951 276.614 392.136 278Z" fill="#DD202F"/>
<path d="M427.396 267.923C427.396 267.923 433.155 220.834 409.115 215C416.993 221.307 419.025 235.138 413.552 250.359C406.951 268.696 384.027 265.751 377.26 252.91C377.174 253.953 377.076 254.936 377.002 256.049L376 267.923C376 267.923 382.733 274.278 401.666 273.991C420.6 273.705 427.396 267.923 427.396 267.923Z" fill="#4C3E35"/>
<path d="M485.187 378.31C459.633 346.095 459.638 277 408.296 277C352.464 277 357.563 346.607 331.406 378.31C312.485 401.248 298.845 456.792 346.633 469.042C359.191 472.262 388.111 470.547 408.296 470.517C428.482 470.547 457.396 472.262 469.954 469.042C517.748 456.792 505.179 403.519 485.187 378.31Z" fill="#C9C94F"/>
<path d="M484 377C483.997 376.992 483.99 376.989 483.987 376.985C483.99 376.987 483.997 376.995 484 377ZM483.963 376.96C483.953 376.956 483.947 376.948 483.94 376.94C483.947 376.948 483.957 376.956 483.963 376.96ZM483.923 376.923C483.913 376.916 483.907 376.908 483.9 376.9C483.907 376.908 483.913 376.916 483.923 376.923ZM483.883 376.886C483.873 376.878 483.867 376.868 483.857 376.861C483.867 376.868 483.873 376.878 483.883 376.886ZM483.843 376.849C483.837 376.841 483.827 376.832 483.817 376.824C483.827 376.832 483.837 376.838 483.843 376.849ZM483.803 376.811C483.797 376.801 483.787 376.792 483.78 376.784C483.787 376.794 483.797 376.801 483.803 376.811ZM483.767 376.774C483.757 376.764 483.747 376.754 483.737 376.744C483.747 376.754 483.757 376.764 483.767 376.774ZM483.733 376.741C483.687 376.695 483.64 376.647 483.59 376.6C483.64 376.647 483.687 376.695 483.733 376.741ZM483.587 376.595C483.577 376.585 483.567 376.576 483.557 376.566C483.567 376.576 483.577 376.585 483.587 376.595ZM483.547 376.555C483.537 376.546 483.527 376.539 483.52 376.528C483.527 376.539 483.537 376.548 483.547 376.555ZM483.507 376.516C483.497 376.509 483.49 376.501 483.48 376.491C483.49 376.501 483.497 376.509 483.507 376.516ZM483.467 376.479C483.46 376.469 483.45 376.461 483.44 376.452C483.45 376.459 483.46 376.469 483.467 376.479ZM483.43 376.442C483.42 376.431 483.41 376.421 483.403 376.414C483.413 376.421 483.42 376.431 483.43 376.442ZM483.39 376.399C483.38 376.391 483.373 376.382 483.363 376.375C483.373 376.382 483.38 376.391 483.39 376.399ZM483.353 376.364C483.323 376.332 483.293 376.302 483.26 376.27C483.293 376.3 483.323 376.332 483.353 376.364ZM483.25 376.258C483.243 376.253 483.237 376.243 483.23 376.238C483.237 376.245 483.243 376.251 483.25 376.258ZM483.21 376.218C483.203 376.211 483.197 376.205 483.193 376.199C483.197 376.205 483.203 376.211 483.21 376.218ZM483.173 376.178C483.163 376.171 483.16 376.166 483.153 376.159C483.16 376.166 483.163 376.171 483.173 376.178ZM483.13 376.137C483.127 376.132 483.12 376.127 483.117 376.119C483.12 376.127 483.127 376.132 483.13 376.137ZM483.09 376.094C483.087 376.089 483.08 376.084 483.077 376.079C483.083 376.087 483.087 376.089 483.09 376.094ZM483.05 376.052C483.047 376.047 483.043 376.045 483.04 376.04C483.043 376.045 483.047 376.049 483.05 376.052ZM483.007 376.005C483.003 376.005 483 376.003 483 376C483.003 376.003 483.003 376.005 483.007 376.005Z" fill="#D0C358"/>
<path d="M443.189 471C431.539 471 418.748 470.528 408.298 470.514C397.848 470.528 385.056 471 373.406 471C362.552 471 352.688 470.592 346.635 469.032C346.588 469.02 346.541 469.009 346.5 468.997C346.488 468.997 346.482 468.991 346.477 468.991C346.436 468.979 346.4 468.975 346.359 468.963C346.354 468.963 346.348 468.956 346.342 468.956C346.301 468.945 346.26 468.934 346.219 468.927C346.219 468.922 346.213 468.922 346.207 468.922C329.54 464.502 320.443 454.737 316.468 442.938C316.468 442.924 316.462 442.913 316.456 442.902C316.45 442.886 316.444 442.867 316.438 442.849C316.432 442.833 316.432 442.815 316.427 442.797C316.421 442.785 316.415 442.774 316.415 442.767C316.409 442.744 316.397 442.721 316.391 442.703C316.391 442.699 316.391 442.692 316.386 442.687C311.029 426.429 315.332 406.373 322.96 391.116C327.977 401.578 351.892 412.101 377.703 412.101C392.187 412.101 407.273 408.784 419.948 400.287C452.287 378.603 446.017 316.871 422.254 278C458.855 289.258 462.046 345.512 483.355 375.385C483.355 375.392 483.361 375.397 483.367 375.397C483.385 375.426 483.402 375.456 483.426 375.478C483.432 375.49 483.438 375.496 483.443 375.508C483.461 375.531 483.473 375.554 483.49 375.572C483.496 375.583 483.508 375.595 483.514 375.606C483.531 375.624 483.543 375.647 483.56 375.665C483.566 375.684 483.578 375.695 483.584 375.707C483.601 375.722 483.613 375.741 483.625 375.759C483.636 375.775 483.642 375.788 483.66 375.805C483.666 375.816 483.683 375.841 483.695 375.853C483.701 375.868 483.713 375.882 483.724 375.898C483.736 375.909 483.748 375.928 483.759 375.946C483.771 375.957 483.783 375.98 483.795 375.992C483.8 376.003 483.806 376.01 483.812 376.021C483.871 376.097 483.923 376.167 483.976 376.243C483.982 376.249 483.988 376.254 483.994 376.268C484.011 376.284 484.023 376.306 484.041 376.324C484.046 376.336 484.058 376.347 484.064 376.359C484.076 376.377 484.093 376.4 484.111 376.425C484.117 376.43 484.122 376.437 484.128 376.448C484.146 376.47 484.163 376.489 484.175 376.512C484.187 376.523 484.193 376.53 484.198 376.541C484.216 376.564 484.228 376.583 484.245 376.598C484.251 376.612 484.257 376.623 484.269 376.628C484.28 376.653 484.298 376.669 484.316 376.692C484.322 376.706 484.327 376.71 484.333 376.717C484.351 376.74 484.368 376.762 484.386 376.785C484.386 376.792 484.392 376.797 484.392 376.797C484.479 376.908 484.561 377.02 484.643 377.13C484.649 377.13 484.649 377.137 484.649 377.137C484.667 377.159 484.684 377.182 484.702 377.207C484.708 377.212 484.714 377.223 484.725 377.23C484.737 377.248 484.755 377.271 484.766 377.294C484.778 377.301 484.784 377.312 484.79 377.323C484.807 377.342 484.825 377.365 484.837 377.383C484.848 377.394 484.854 377.406 484.86 377.41C484.878 377.429 484.889 377.451 484.907 377.469C484.919 377.481 484.924 377.492 484.936 377.504C484.948 377.522 484.96 377.54 484.977 377.556C484.989 377.575 484.995 377.586 485.006 377.597C485.018 377.615 485.03 377.634 485.047 377.645C485.059 377.668 485.071 377.68 485.088 377.702C485.094 377.714 485.106 377.721 485.112 377.739C485.135 377.766 485.159 377.796 485.188 377.826C505.057 403.009 517.603 456.087 470.792 468.81C470.511 468.886 470.236 468.963 469.955 469.032C463.902 470.592 454.043 471 443.189 471Z" fill="#BABD4F"/>
<path d="M476.029 366C476.029 366 478.985 389.295 459 398C459 398 468.541 397.952 480.474 381.613C480.474 381.613 481.667 391.697 477.49 394.696C477.49 394.696 482.749 390.672 484 378.72L476.029 366Z" fill="#B0B54F"/>
<path d="M338.006 367L338 366.994C339.804 363.829 341.451 360.478 342.988 357H343V357.005C341.457 360.485 339.81 363.836 338.006 367Z" fill="#D0D395"/>
<path d="M370.999 379C363.45 379 343.857 378.004 338.156 367.97L338 367.671C339.721 364.293 341.291 360.716 342.762 357C349.262 373.768 374 378.937 374 378.937C374 378.937 372.87 379 370.999 379Z" fill="#BABD4F"/>
<path d="M102 360L113.182 304H186L178.629 360H102Z" fill="#585A88"/>
<path d="M115.198 307H183L176.273 359H105L115.198 307Z" fill="white"/>
<path d="M176.198 359H171.928C171.168 358.446 169.307 358.246 167.17 358.246C165.22 358.246 163.041 358.411 161.263 358.623C162.211 354.412 161.563 347.767 161.198 345.554C160.921 343.887 155.15 327.163 149.696 311.781H182.376L182.994 307H148H183L176.198 359Z" fill="#E3F0FF"/>
<path d="M162.105 337H174L172.001 350H160L162.105 337Z" fill="#A8CDF7"/>
<path d="M145 363L124 351.671L128.221 337L143.343 345.471L145 363Z" fill="#B0B54F"/>
<path d="M182.381 311H149.696C149.125 309.649 148.56 308.31 148 307H183L182.381 311Z" fill="#C5DEFB"/>
<path d="M120.228 222C122.031 227.916 122.178 235.562 121.877 236.428C121.583 237.292 120.799 238.59 121.117 241.047C121.43 243.496 122.779 246.236 118.726 253.158C114.672 260.087 117.524 261.383 112.869 261.96C108.215 262.543 98.1579 256.627 98.1579 256.627L95 227.191L120.228 222Z" fill="#F0BB8F"/>
<path d="M106.354 261.768C105.186 264.552 108 269 108 269C108 269 81.1502 267.968 78.9693 265.013C76.7884 262.048 78.9693 257.18 78.9693 257.18L102.62 255L106.354 261.768Z" fill="#F0BB8F"/>
<path d="M111.157 243.569C110.903 243.17 112.31 237.079 108.337 236.281C104.37 235.488 103.597 239.198 104.37 242.776C105.137 246.348 107.991 247.018 107.651 250.592C107.317 254.171 104.111 256.025 101.937 259.203C99.7571 262.384 80.1632 260.664 77.9835 259.203C75.8038 257.75 76.7034 252.313 74.0163 247.942C71.3234 243.569 67.6099 235.094 69.5301 223.563C71.4503 212.039 81.057 203.557 91.4364 203.026C101.804 202.495 112.702 210.249 115.943 211.502C121.133 213.506 120.493 212.57 121.133 213.506C121.773 214.432 123.284 222.58 119.697 225.103C116.11 227.62 112.697 230.453 112.57 232.839C112.437 235.218 112.95 241.714 112.95 241.714L111.157 243.569Z" fill="#52380F"/>
<path d="M70.6456 269.428C74.7511 265.341 72.9546 261.698 75.8797 261.122C78.9718 260.509 99.0905 262.32 103.467 264.038C107.843 265.76 108.793 267.381 110.958 271.468C113.117 275.562 125.854 279.411 129.7 279.889C133.547 280.369 137.387 280.369 140.03 286.621C142.673 292.876 159.976 341.946 160.454 344.834C160.932 347.721 161.894 358.304 159.015 360.708C156.13 363.117 148.201 364.799 144.838 363.117C141.476 361.428 129.459 344.354 129.459 344.354C129.459 344.354 135.464 367.204 135.228 370.093C134.986 372.98 113.601 385.482 85.2481 385.967C56.8953 386.444 57.379 381.637 57.379 381.637C57.379 381.637 54.736 331.363 49.2083 320.78C43.6805 310.198 40.7957 303.463 42.4771 293.361C44.1585 283.255 47.0432 281.093 49.2083 280.61C51.3675 280.132 67.7551 272.303 70.6456 269.428Z" fill="#C9C94F"/>
<path d="M159.041 360.854C160.526 359.579 160.971 356.056 161 352.559C158.961 352.705 153.758 353.022 152.627 352.492C151.216 351.829 125 311 125 311L129.723 344.196C129.723 344.196 141.643 361.588 144.979 363.308C148.315 365.021 156.179 363.308 159.041 360.854Z" fill="#B0B54F"/>
<path d="M132.444 367.882C139.69 364.446 155.533 358.447 158.288 357.817C161.049 357.187 169.881 356.346 171.572 357.817C173.262 359.292 181.232 367.395 180.995 371.076C180.752 374.759 180.376 389.67 167.861 409L125 406.454V366.788L132.444 367.882Z" fill="#4C3E35"/>
<path d="M116.222 210.892C111.783 208.675 101.795 202.553 92.1891 203.026C81.4229 203.559 71.4582 212.079 69.4665 223.654C69.2272 225.04 69.0837 226.374 69 227.668C70.5252 238.994 85.6037 244.348 95.5804 238.783C105.701 233.126 104.857 223.811 112.752 219.292C118.082 216.242 117.292 212.811 116.222 210.892Z" fill="#5A3E10"/>
<path d="M33.188 276.367C-6.14639 287.77 -11.7797 401.731 23.0853 446.462C37.1919 464.567 47.8417 464.631 65.5157 465.241C83.4748 465.865 97.0344 465.842 109.779 465.819C118.823 465.808 127.453 465.789 136.957 466.006C175.395 466.884 210.062 469.734 217.412 458.821C226.048 446.03 228.143 407.068 197.748 387.771C167.358 368.469 136.031 358.826 119.044 337.767C102.062 316.717 82.6717 262.02 33.188 276.367Z" fill="#A98AF4"/>
<path d="M178.791 467C198.061 467 212.552 465.444 217 458.785C212.552 465.444 198.067 467 178.791 467ZM136.831 466.001C129.797 465.843 123.245 465.806 116.651 465.806C114.361 465.806 112.07 465.813 109.751 465.813C107.402 465.82 105.03 465.825 102.606 465.825C91.9135 465.825 80.2346 465.742 65.6448 465.233C48.0337 464.62 37.4218 464.555 23.3655 446.373C23.3307 446.334 23.3017 446.293 23.2669 446.252C23.3017 446.293 23.3307 446.334 23.3655 446.373C37.4218 464.555 48.0337 464.62 65.6448 465.233C80.2346 465.742 91.9135 465.825 102.606 465.825C105.03 465.825 107.402 465.82 109.751 465.813C112.07 465.813 114.361 465.806 116.651 465.806C123.245 465.806 129.797 465.843 136.831 466.001ZM23.2437 446.215C23.2205 446.187 23.1973 446.157 23.1741 446.128C23.1973 446.157 23.2205 446.187 23.2437 446.215ZM23.1451 446.093C23.1219 446.056 23.0987 446.027 23.0755 445.999C23.0987 446.027 23.1219 446.056 23.1451 446.093ZM23.0465 445.962C23.0233 445.928 22.9943 445.893 22.9653 445.857C22.9943 445.893 23.0233 445.928 23.0465 445.962ZM22.9538 445.841C22.89 445.751 22.8262 445.669 22.7566 445.581C22.8262 445.669 22.89 445.751 22.9538 445.841ZM22.7566 445.574C22.7218 445.533 22.6928 445.494 22.6638 445.453C22.6928 445.487 22.7218 445.533 22.7566 445.574ZM22.6522 445.434C22.6232 445.4 22.5884 445.352 22.5594 445.317C22.5884 445.359 22.6232 445.393 22.6522 445.434ZM22.5536 445.306C12.8638 432.231 6.42712 413.661 3.087 393.542C6.42712 413.654 12.8638 432.236 22.5536 445.306ZM3.08119 393.5C3.07539 393.452 3.06377 393.399 3.05797 393.353C3.06377 393.406 3.06959 393.447 3.08119 393.5ZM3.04056 393.271C3.03476 393.241 3.03482 393.211 3.02902 393.176C3.03482 393.206 3.03476 393.241 3.04056 393.271ZM3.01161 393.071C3.00581 393.048 3 393.018 3 393C3 393.018 3.00581 393.048 3.01161 393.071Z" fill="#C7BBEB"/>
<path d="M179.069 467C166.563 467 152.048 466.352 136.958 466.008C129.899 465.85 123.323 465.814 116.706 465.814C114.407 465.814 112.108 465.821 109.78 465.821C107.423 465.828 105.043 465.832 102.61 465.832C91.8789 465.832 80.1581 465.75 65.5159 465.244C47.8416 464.635 37.1916 464.571 23.0847 446.503C23.0498 446.464 23.0207 446.423 22.9858 446.382C22.98 446.37 22.9684 446.359 22.9625 446.345C22.9393 446.318 22.916 446.288 22.8927 446.258C22.8811 446.247 22.8694 446.229 22.8636 446.224C22.8403 446.188 22.817 446.158 22.7938 446.131C22.7879 446.119 22.7763 446.106 22.7646 446.094C22.7413 446.06 22.7122 446.026 22.6831 445.989C22.6831 445.985 22.6774 445.978 22.6716 445.973C22.6075 445.884 22.5435 445.802 22.4736 445.716C22.4736 445.709 22.4736 445.709 22.4736 445.709C22.4387 445.668 22.4097 445.622 22.3806 445.588C22.3748 445.581 22.3747 445.574 22.3689 445.57C22.3398 445.528 22.3049 445.494 22.2758 445.453C22.2758 445.446 22.2758 445.446 22.27 445.442C12.5453 432.454 6.08553 413.988 2.73341 394.002C2.73341 393.988 2.72758 393.977 2.72758 393.961C2.71594 393.908 2.7101 393.867 2.70428 393.815C2.69846 393.785 2.69263 393.762 2.68681 393.733C2.68099 393.703 2.68105 393.669 2.67523 393.639C2.66941 393.603 2.66357 393.568 2.65775 393.534C2.65193 393.512 2.6461 393.482 2.6461 393.464C2.63446 393.418 2.62862 393.382 2.6228 393.336C-3.61006 355.291 1.36579 311.868 16.4853 290C30.7609 395.986 85.4773 425.528 145.821 437.189C158.159 439.577 168.646 440.524 177.527 440.524C212.072 440.524 222.268 426.165 222.268 426.165C224.369 439.76 221.698 452.506 217.415 458.836C212.951 465.453 198.408 467 179.069 467Z" fill="#9C81E5"/>
<path d="M135 351C133.633 350.361 132.298 349.705 131.011 349.032C131.005 349.021 131 349.01 131 349C132.276 349.669 133.595 350.32 134.952 350.958C134.968 350.972 134.984 350.986 135 351Z" fill="#9F9693"/>
<path d="M131 349C130.017 348.082 129.06 347.145 128.133 346.184C128.087 346.124 128.046 346.062 128 346C128.968 347.004 129.966 347.989 130.99 348.945C130.99 348.962 130.995 348.981 131 349Z" fill="#ACA093"/>
<path d="M145 359C141.523 356.45 138.19 353.836 135.052 351.084C135.035 351.056 135.017 351.028 135 351C138.149 353.772 141.489 356.4 144.977 358.963C144.988 358.978 144.994 358.983 145 359Z" fill="#9F9693"/>
<path d="M143.19 385C143.19 385 138.72 359.194 128 346C129.025 346.924 130.085 347.826 131.173 348.709C132.538 349.822 133.955 350.905 135.405 351.963C138.499 354.219 141.785 356.363 145.213 358.453C147.405 361.873 148 364.869 148 364.869C144.521 359.281 137.564 355.36 137.564 355.36C141.394 360.767 143.19 385 143.19 385Z" fill="#9C81E5"/>
<path d="M165.105 318H177L175.001 333H163L165.105 318Z" fill="#A8CDF7"/>
</svg>
