<svg width="536" height="364" viewBox="0 0 536 364" fill="none" xmlns="http://www.w3.org/2000/svg">
<path d="M112 145V182.825H82.3801V334H32.502V182.825H3V145H112Z" fill="#F8F3E0"/>
<path d="M132 145H213.739V182.825H181.019V218.663H211.643V254.622H181.019V296.175H217V334H132V145Z" fill="#F8F3E0"/>
<path d="M299.071 266.528C296.543 245.121 294.017 218.663 291.474 187.145C286.4 223.333 283.203 249.795 281.902 266.528H299.071ZM325.477 145L354 334H303.058L300.373 300.033H282.533L279.534 334H228L253.442 145H325.477Z" fill="#F8F3E0"/>
<path d="M522 145V334H478.941L478.878 206.407L461.738 334H431.198L413.117 209.323L413.059 334H370V145H433.734C435.627 156.363 437.574 169.771 439.583 185.18L446.585 233.256L457.916 145H522Z" fill="#F8F3E0"/>
<path d="M82.5656 334H33V326.753L76.085 324.415L78.4354 176.03L112 173V182.491H82.5656V334Z" fill="#F4E9D2"/>
<path d="M33 182H3V175L33 176.527V182Z" fill="#F4E9D2"/>
<path d="M217 334H132V327.002L211.693 329.338L212.935 298H217V334Z" fill="#F4E9D2"/>
<path d="M212 255H180V248.717L208.123 249.975L209.427 219H212V255Z" fill="#F4E9D2"/>
<path d="M207.936 182H189.086C189.055 180.995 189.027 179.992 189 179L208 179.783C207.98 180.518 207.958 181.26 207.936 182Z" fill="#F4E9D2"/>
<path d="M278.556 334H228L228.717 328.759H273.808L279.186 294H297.724L299 301.203H281.498L278.556 334Z" fill="#F4E9D2"/>
<path d="M343 268L337.502 267.401L322 145H325.061L343 268Z" fill="#F4E9D2"/>
<path d="M304 268H282H298.224L291.045 188L304 268Z" fill="#F4E9D2"/>
<path d="M412.945 334H401C405.962 330.672 410.122 327.006 412.949 323.719L412.945 334ZM412.958 305.742C411.863 304.672 410.565 303.781 409.107 303.061C410.029 301.591 410.608 300.174 410.777 298.865C411.035 296.873 410.003 294.602 408.27 291.836L413 209L412.958 305.742Z" fill="#F4E9D2"/>
<path d="M461.163 334H430.638L430 329.589L457.248 327.956L476.739 215C476.829 215.225 476.915 215.446 477 215.666L461.163 334Z" fill="#F4E9D2"/>
<path d="M522 334H480.004L480 328.365L516.04 326.861L518.759 159.403C519.908 159.295 520.991 159.166 522 159V334Z" fill="#F4E9D2"/>
<path d="M511.267 159C499.012 159 484.041 157.342 474.702 155.271C472.56 149.661 470.714 146.24 470 145C476.708 146.749 487.869 148.72 505.546 149.511C506.415 149.547 507.256 149.565 508.064 149.565C513.104 149.565 517.003 148.829 520 147.585L519.812 158.668C517.219 158.895 514.325 159 511.267 159Z" fill="#F4E9D2"/>
<path d="M519 159L519.162 146.955C520.238 146.392 521.18 145.736 522 145V158.556C521.066 158.738 520.064 158.882 519 159Z" fill="#F0E0C5"/>
<path d="M451.008 139.053C451.431 132.359 459.062 129.2 470.86 128.133C482.662 127.071 498.162 126.999 498.162 126.999L498.071 126.936L526.236 126C527.762 132.174 527.485 139.532 520.848 145.788C511.045 155.017 469.906 145.264 469.906 145.264C469.906 145.264 479.3 160.59 482.798 191.438C485.701 217.097 492.697 232.934 492.697 232.934C492.697 232.934 494.082 239.118 494.182 242.295C494.264 244.935 493.106 244.889 491.788 244.844C491.302 244.826 490.789 244.808 490.312 244.93C486.432 245.915 481.835 236.175 481.835 236.175C481.835 236.175 480.609 227.398 478.764 222.005C475.525 212.532 468.548 197.761 462.887 182.145C454.452 158.931 450.804 142.217 451.008 139.053Z" fill="#F0BB8F"/>
<path d="M496.216 118.976C496.216 118.976 470.872 116.342 460.751 117.156C450.613 117.975 449.172 116.975 446.76 127.646C444.335 138.327 444.371 208.658 433 218.446C433 218.446 439.201 221.877 441.626 220.786C446.038 218.804 451.421 203.517 451.421 203.517C451.421 203.517 447.957 196.95 453.521 186.573C464.409 166.222 459.076 150.116 456.813 137.67L514 135.435L496.216 118.976Z" fill="#F0BB8F"/>
<path d="M484.485 197.496L484.476 197.509C484.476 197.509 478.481 195.166 471.283 201C468.603 194.925 465.748 188.334 463.152 181.536C454.528 159.041 450.799 142.844 451.008 139.779C451.217 136.695 453.13 134.387 456.353 132.71L478.917 132L497 149.808C483.593 148.775 470.326 145.796 470.326 145.796C470.326 145.796 479.93 160.649 483.505 190.541C483.798 192.954 484.132 195.262 484.485 197.496Z" fill="#4C3E35"/>
<path d="M441.361 180.01C440.428 197.702 438.315 214.135 433 218.483C433 218.483 439.435 221.864 441.951 220.789C446.53 218.836 452.117 203.771 452.117 203.771C452.117 203.771 448.522 197.3 454.296 187.074C455.355 185.201 456.222 183.368 457 181.562C452.834 180.858 445.588 179.787 441.366 180.037L441.361 180.01Z" fill="#F0BB8F"/>
<path d="M525.73 119.224L490.127 117.7C490.127 117.7 463.198 115.365 452.787 116.168C442.385 116.976 443.798 126.79 443.181 133.011C442.399 140.931 441 179.683 441 180.403L441.005 180.431C445.124 180.174 452.193 181.275 456.257 182C463.673 163.298 464.917 153.714 462.846 142.275C462.846 142.275 472.077 148.497 506.061 150.075C540.85 151.69 525.73 119.224 525.73 119.224Z" fill="#614F45"/>
<path d="M452.801 203C452.801 203 456.731 206.854 455.879 212.628C455.018 218.388 455.456 222.776 455.824 224.896L453.24 225.22L451.701 212.54C451.701 212.54 446.865 218.789 445.834 222.041C444.804 225.313 446.327 226.077 433.016 227.722C426.467 228.535 420.107 227.546 421.103 224.994C421.771 223.324 430.147 220.44 432.488 219.157C432.488 219.157 441.173 221.62 452.801 203Z" fill="#614F45"/>
<path d="M483.076 235.784C482.364 232.378 486.809 242.926 490.274 241.443C493.727 239.961 492.947 234.729 493.3 232C493.3 232 501.396 253.482 493.637 254.938C488.61 255.896 485.106 245.535 483.076 235.784Z" fill="#614F45"/>
<path d="M486 119C486 119 480.489 102.199 481.803 93.3562C483.118 84.5182 473 79 473 79L476.604 118.332L486 119Z" fill="#C7E1FF"/>
<path d="M481.898 135C477.472 135 451.931 123.461 448 119L483.128 132.491L509.088 122.857L509.083 122.74C509.725 122.661 510.358 122.576 511 122.487C510.064 122.993 487.924 135 481.898 135Z" fill="#56463D"/>
<path d="M480.412 102L474.845 100.34L473 82C473.838 83.5435 475.081 85.1057 476.849 86.6539C476.849 86.6539 479.39 93.2161 481 101.701L480.412 102Z" fill="#B1D4FF"/>
<path d="M506.352 34.3043C507.369 36.6582 515.075 38.0009 513.873 46.0315C512.663 54.0707 499.81 47.4082 499.81 47.4082L497 35.3962L500.61 30L506.352 34.3043Z" fill="#713C1F"/>
<path d="M484.976 33C487.461 36.748 487.93 40.7972 487.037 43.2826C486.155 45.7636 480.949 48.754 483.892 52.4754C486.841 56.2057 503 51.9172 503 51.9172L484.976 33Z" fill="#713C1F"/>
<path d="M520.762 96.9246C521.272 93.4159 522.141 89.6067 523 86.291C521.952 83.1727 520.923 80.0499 519.696 76.9899L519.586 76.8328L519.599 76.7251L519.581 76.6758L519.609 76.613C521.13 66.4729 516.644 56.2431 515.27 46.0761C508.837 44.757 502.853 44.5012 502.582 43.4199C502.219 41.9303 499.411 30 499.411 30L486.728 37.0981C488.355 42.6482 489.187 48.9162 485.547 50.177C480.846 51.8147 474.192 53.1562 474.003 61.7708C473.819 70.3719 481.857 85.8198 481.53 96.6688C481.223 107.522 486.512 110.008 486.512 110.008L522.692 120C522.692 120 519.535 105.557 520.762 96.9246Z" fill="#F0BB8F"/>
<path d="M476.526 26C476.526 26 472.214 21.8453 473.127 16.4275C473.836 12.2289 475.283 3.8183 481.563 2.11506C489.174 0.0685359 476.526 26 476.526 26Z" fill="#713C1F"/>
<path d="M476.159 27.5966C475.695 28.888 476.28 30.3307 477.471 30.81L479.888 31.829C481.065 32.3284 482.392 31.6978 482.837 30.4114C483.31 29.1301 482.716 27.6874 481.543 27.1779L479.113 26.1589C477.935 25.6797 476.618 26.3204 476.159 27.5966Z" fill="#EF384C"/>
<path d="M474 17.0209C474.255 9.51758 476.889 1.44387 486.957 0.15003C497.571 -1.218 504.422 7.06443 505.419 12.9957C506.42 18.9037 505.874 22.8269 505.642 24.0836C505.401 25.3404 503.071 29.6439 500.41 29.9871C496.629 30.474 474 17.0209 474 17.0209Z" fill="#713C1F"/>
<path d="M501.688 26.0363C501.571 28.1372 502.489 31.0187 503 34.0499C502.324 34.6353 501.164 35.7743 500.291 36.4458C494.513 40.9336 489 42 489 42C489 42 489.542 40.8565 490.393 39.173L501.594 26L501.688 26.0363Z" fill="#E8AB79"/>
<path d="M501.519 26.175C501.047 28.328 501.033 31.1806 497.941 34.2725C494.853 37.4049 489.801 41.6071 488.026 41.8237C486.279 42.0404 484.975 42.6994 481.744 38.6732C478.499 34.6471 476.267 32.8642 475.509 28.4363C474.774 24.0085 471.797 15.1528 477.029 11.0906C480.884 8.07097 487.873 8.40494 491.941 11.56C496.037 14.7285 496.295 16.0645 498.306 21.6163C498.306 21.6163 500.811 17.2968 501.995 16.9853C503.174 16.6649 504.301 17.2968 503.927 19.8199C503.566 22.3249 502.905 22.018 502.984 23.2592C503.058 24.5276 503.081 25.7778 502.503 26.3059C501.773 26.9469 501.519 26.175 501.519 26.175Z" fill="#F0BB8F"/>
<path d="M480 10.9087C480 10.9087 488.19 22.2277 497.759 23L500 11.4321L490.584 6L480 10.9087Z" fill="#713C1F"/>
<path d="M481 10.8209C481 10.8209 477.55 18.3676 473.469 21C473.469 21 471.216 11.2959 476.589 6L481 10.8209Z" fill="#713C1F"/>
<path d="M526.663 87.357C526.663 87.357 532.194 79.201 531.995 72.2871C531.707 62.4629 528.906 47.0038 519.785 44.5431C517.684 43.9731 514.454 43.9129 511.852 43.5514C509.552 43.2363 507.709 43 507.709 43C507.709 43 505.865 54.738 493.429 56.3136C486.201 57.2357 484.592 49.534 484.592 49.534C484.592 49.534 482.624 50.0761 482.133 50.2569C481.472 50.4886 480.2 51.3088 480.2 51.3088C480.2 51.3088 474.847 64.8726 474.058 68.0886C473.021 72.3751 471.168 79.1964 477.714 85.735C477.714 85.735 485.532 108.836 481.056 124.253C481.056 124.253 507.053 127.418 525.081 120.717C525.081 120.717 521.292 103.386 523.65 96.9262C525.041 93.1263 524.376 94.1319 526.663 87.357Z" fill="#C7E1FF"/>
<path d="M474.002 61.1527C473.983 61.7136 474.136 62.38 474.221 63C476.68 58.5631 479.872 53.2193 480 53C476.68 54.4382 474.136 56.876 474.002 61.1527Z" fill="#C7E1FF"/>
<path d="M474.22 63C474.14 62.418 474 61.798 474 61.2581C474 61.2202 474 61.1864 474 61.1527C474.134 56.876 476.68 54.4382 480 53C479.872 53.2193 476.68 58.5631 474.22 63Z" fill="#B1D4FF"/>
<path d="M525 120C525 119.996 525 119.996 525 119.996C525 119.996 525 119.996 525 120ZM525 119.996C524.963 119.832 523.237 111.793 523 105C523.237 111.793 524.963 119.832 525 119.996Z" fill="#E3F0FF"/>
<path d="M504.732 125L510.198 122.895L496 117.943C496.6 116.985 496.794 115.967 497.428 115.705C497.881 115.511 499.305 115.097 501.315 114.397L501.535 114.82C509.723 111.025 516.307 108.934 522.886 105C523.136 112.259 524.961 120.85 525 121.025C525 121.025 525 121.025 525 121.029C520.384 122.766 515.267 123.835 510.22 124.466L510.198 122.895L504.732 125Z" fill="#B1D4FF"/>
<path d="M492 -1.86364e-06C493.95 0.607241 506.036 3.04547 508.658 16.2194C509.492 20.3866 508.77 27.0524 506.819 34.4181L501.719 37C501.719 37 500.746 31.4885 500.468 29.7224C500.468 29.7224 506.551 26.2736 505.717 18.5093C504.878 10.7542 497.8 6.74452 497.8 6.74452L492 -1.86364e-06Z" fill="#713C1F"/>
<path d="M517.25 93C517.472 91.8202 518.492 85.9164 517.532 81.6934C516.46 76.9788 516 66 516 66C516.75 70.7286 519.863 75.9956 519.863 75.9956L522 90.1815C520.476 90.9025 518.887 91.853 517.25 93Z" fill="#B1D4FF"/>
<path d="M483.078 132L509 122.162L473.628 110L448 118.503L483.078 132Z" fill="#C3C6D5"/>
<path d="M479.907 129L451 118.724L469.69 113L499 122.31L479.907 129Z" fill="#827A7F"/>
<path d="M511 109.699C503.866 113.45 497.225 115.126 496.098 115.588C494.968 116.046 495.135 118.655 492.473 119.594C490.975 120.119 489.639 120.081 488.573 120.042C487.745 120.008 487.075 119.979 486.619 120.215C485.576 120.76 485.888 122.859 483.803 124.029C482.542 124.737 481.648 124.689 480.904 124.645C480.42 124.612 479.996 124.583 479.587 124.766C478.54 125.223 476.739 125.03 477.032 124.014C477.325 122.989 479.298 115.829 480.485 114.774C481.676 113.72 490.211 112.834 492.864 111.563C495.517 110.287 508.138 102 508.138 102L511 109.699Z" fill="#F0BB8F"/>
<path d="M483 133L479.67 100.782L444 89L447.627 119.92L483 133Z" fill="#DBDFE8"/>
<path d="M508.973 122L509 123.669L483.027 133L483 131.522L508.973 122Z" fill="#C3C6D5"/>
<path d="M483 133L483.848 132.692L483.701 131.254L508.973 122L509 123.669L483 133Z" fill="#ACB0C3"/>
<path d="M483.185 133L484 132.689L480.828 100L480 100.49L483.185 133Z" fill="#DBDFE8"/>
<path d="M483.185 133L480 100.49L480.828 100L484 132.689L483.185 133Z" fill="#CFD2DE"/>
<path d="M444 89.4729L444.864 89L481 101.484L480.123 102L444 89.4729Z" fill="#ECF0FA"/>
<path d="M466.121 114.798C464.743 116.594 462.224 116.349 460.5 114.252C458.775 112.149 458.498 108.998 459.876 107.202C461.26 105.405 463.778 105.65 465.503 107.753C467.222 109.844 467.505 113.001 466.121 114.798Z" fill="white"/>
<path d="M530.282 57C535.068 81.7601 539.804 91.1253 531.33 97.8594C521.263 105.866 512.434 107.82 500.323 113L497 107.138C497 107.138 498.14 106.693 503.522 101.999C510.399 96.0055 516.883 91.3161 522.611 89.0214L520.165 75.2531L530.282 57Z" fill="#C7E1FF"/>
<path d="M497.571 109L497.225 108.35L497 107.923C497 107.923 498.111 107.457 503.355 102.555C510.055 96.2947 516.374 91.3968 521.955 89L522 90.3764C522 90.3764 515.241 94.6431 510.806 97.7993C506.381 100.955 497.58 108.991 497.571 109Z" fill="#D4E9FF"/>
<path d="M188 155C188.028 153.703 188.066 152.312 188.112 150.861C189.542 148.024 194.942 145 197.734 145C197.833 145 197.93 145.006 198.022 145.011C199.948 145.171 205.096 147.517 207.862 148.836C207.916 150.386 207.964 151.893 208 153.317C205.341 152.715 202.828 152.467 200.485 152.467C195.448 152.467 191.201 153.631 188 155Z" fill="#F4E9D2"/>
<path d="M29.4522 218.115C29.1339 220.641 29.0134 222.769 26.6207 229.639C24.4536 235.856 18.2991 244.961 22.3488 248.175C26.1287 251.174 33.1785 251.724 36.5961 250.115C40.0132 248.501 42.1272 242.852 42.9065 237.814C43.6827 232.777 43.1821 229.634 44.3648 229.143C45.5498 228.66 46.9139 227.618 46.9939 224.373C47.0735 221.124 46.3455 215 46.3455 215L29.4522 218.115Z" fill="#7A553C"/>
<path d="M29.4607 221.655C35.7381 225.144 44.9279 222.414 44.9279 222.414C44.9279 222.414 46.3056 226.611 44.3749 227.218C42.4407 227.824 42.4707 230.799 42.067 233.604C41.6601 236.408 38.7337 246.858 34.2895 248.279C29.8448 249.704 22.3262 248.075 21.3932 244.461L21 244.979C21.0373 246.252 21.411 247.325 22.3262 248.075C26.1096 251.18 33.1658 251.75 36.5865 250.084C40.0067 248.413 42.1239 242.563 42.9026 237.348C43.6795 232.132 43.1784 228.879 44.3622 228.37C45.5482 227.87 46.9136 226.787 46.9937 223.432C47.0524 220.998 46.6878 217.018 46.4817 215C42.6964 215.366 39.0255 215.916 39.0255 215.916L29.4607 221.655Z" fill="#694329"/>
<path d="M89.0896 216.646C89.6385 219.232 89.9553 221.427 92.9666 228.314C95.695 234.554 102.649 243.418 98.9297 247.124C95.4561 250.579 88.5086 251.812 84.9698 250.468C81.4251 249.119 78.8031 243.455 77.5622 238.307C76.323 233.164 76.5284 229.862 75.3083 229.467C74.0905 229.076 72.6388 228.128 72.2581 224.77C71.8755 221.417 72.0314 215 72.0314 215L89.0896 216.646Z" fill="#7A553C"/>
<path d="M88.1785 221.872C82.3696 224.596 74.0565 222.547 74.0565 222.547C74.0565 222.547 73.1388 227.036 74.9696 227.475C76.8007 227.919 77.0197 231.005 77.6283 233.874C78.2335 236.748 81.8035 247.309 86.0184 248.35C90.2316 249.397 97.0243 246.981 97.5802 243.138L97.9883 243.644C98.0607 244.96 97.8038 246.108 97.0243 246.981C93.7966 250.564 87.3408 251.842 84.0525 250.448C80.7587 249.05 78.3223 243.176 77.1692 237.838C76.0178 232.505 76.2103 229.081 75.0749 228.671C73.9432 228.266 72.5943 227.282 72.2405 223.801C71.9824 221.279 71.9887 217.117 72.0085 215C75.5276 215.014 78.9557 215.227 78.9557 215.227L88.1785 221.872Z" fill="#694329"/>
<path d="M111.687 102.359C111.23 100.29 107.913 95.4111 105.535 90.8641C104.852 89.1908 104.096 87.3766 103.304 85.5123L103.301 85.4986V85.5032C101.171 80.5151 98.797 75.2951 96.9209 72.1213C92.4668 64.5823 90.3276 59.7761 81.832 56.9206C73.3346 54.0696 64.5952 50.9004 64.5952 50.9004L43.266 50C38.5808 51.8779 23.0021 57.3844 18.9551 60.2353C14.9082 63.0909 7.82692 75.7271 3.17331 92.8466C2.82075 94.1425 2.5192 95.2929 2.24384 96.3751H2.2407C-0.43257 103.337 -0.154044 112.49 0.276153 115.268C0.702738 118.051 6.22035 120.829 9.46465 121.97C12.7112 123.116 24.9576 117.496 24.9576 117.496L27.2214 129L87.2805 125.731L87.5451 111.185C87.5451 111.185 89.9452 116.086 93.3534 117.56C96.7584 119.028 101.14 122.298 106.82 117.56C112.498 112.817 112.334 105.301 111.687 102.359Z" fill="#FFD765"/>
<path d="M20.2817 72C20.4524 76.4369 19.1794 93.0686 16.0894 96.0279C12.9977 98.9873 10.6348 99.5408 9 101.938C9 101.938 11.7251 99.9287 13.1803 100.378C13.1803 100.378 9.54453 103.032 10.0903 106C10.0903 106 11.8491 102.901 16.8166 101.572C21.7858 100.243 23 96.7645 23 93.9925C23 91.2206 21.7472 77.9144 20.2817 72Z" fill="#FFC92E"/>
<path d="M79.9726 81.1895L79 73L84 82L79.9726 81.1895Z" fill="#FFC92E"/>
<path d="M22.8917 102.031C19.0521 102.396 15.7691 112.201 17.4521 115.525C19.1382 118.844 27 115.525 27 115.525V105.002C27 105.002 27.019 101.644 22.8917 102.031Z" fill="#FFC92E"/>
<path d="M48.0163 156C49.5373 153.679 55.4357 151.198 58.2023 151.376C60.967 151.551 70.1858 155.097 70.1858 155.097L77 125H40.1355L37 140.502L48.0163 156Z" fill="#4C3E35"/>
<path d="M93.1776 98.9837C94.1203 98.2773 99.8411 97.1776 100.861 98.9837C101.883 100.79 102.497 108.987 101.476 110.895C100.454 112.807 92.4077 111.855 91.3238 110.895C90.2379 109.939 87.9838 107.507 89.5192 105.675C91.0569 103.835 93.1776 98.9837 93.1776 98.9837Z" fill="#FFC92E"/>
<path d="M28.0932 126.495C23.8316 126.956 18.4462 130.554 19.046 142.194C19.6477 153.829 23.1758 204.192 22.9141 208.919C22.6518 213.645 22.9141 217.462 22.9141 217.462C22.9141 217.462 38.7894 221.463 48.9238 216.557C48.9238 216.557 47.7982 168.919 47.9846 160.196C48.1742 151.463 49.2993 136.374 48.9238 133.287C48.5497 130.191 48.9238 124.25 28.0932 126.495Z" fill="#4C3E35"/>
<path d="M48.052 160.255C48.229 151.469 49.2795 136.287 48.9289 133.181C48.6638 130.81 48.7769 126.802 40.309 126C39.0694 139.42 41.9297 208.326 42.3852 219C44.677 218.635 46.9234 218.004 48.9289 216.962C48.9289 216.962 47.878 169.031 48.052 160.255Z" fill="#614F45"/>
<path d="M87.8174 126.495C91.6513 126.956 96.4999 130.554 95.9583 142.194C95.4185 153.829 92.2431 204.192 92.4787 208.919C92.7147 213.645 92.4787 217.462 92.4787 217.462C92.4787 217.462 78.1906 221.463 69.0679 216.557C69.0679 216.557 70.0826 168.919 69.9136 160.196C69.7459 151.463 68.7316 136.374 69.0679 133.287C69.4063 130.191 69.0679 124.25 87.8174 126.495Z" fill="#4C3E35"/>
<path d="M69.8423 160.255C69.6876 151.469 68.7525 136.287 69.0626 133.181C69.2997 130.81 69.1992 126.802 76.7249 126C77.828 139.42 75.2844 208.326 74.88 219C72.8429 218.635 70.8449 218.004 69.0626 216.962C69.0626 216.962 69.998 169.031 69.8423 160.255Z" fill="#614F45"/>
<path d="M43.7125 46.4542C44.2466 48.3157 42.87 54.4852 43.0101 55.5164C43.1502 56.5521 48.8372 64.8687 56.0004 64.9982C63.163 65.1321 69.2709 57.7306 68.9907 56.6146C68.7105 55.4985 67.726 50.3068 67.726 47.5971C67.726 44.8784 43.7125 46.4542 43.7125 46.4542Z" fill="#A55F3E"/>
<path d="M42.1884 42.1131C41.6445 43.6209 42.355 47.48 43.3408 49.8736C44.3252 52.2672 49.5655 58.9487 56.202 59.9193C62.8404 60.8947 67.3598 52.7478 68.1228 50.5992C69.3525 47.1407 68.9299 42 68.9299 42L42.1884 42.1131Z" fill="#151724"/>
<path d="M37.4818 36.38C36.5526 36.6776 37.0357 38.4861 38.3464 40.1573C39.6584 41.8239 38.9071 43.8018 39.7112 44.5069C40.5153 45.212 41.7835 44.1177 41.7835 44.1177C41.7835 44.1177 45.9597 53.0228 56.0405 53C64.3486 52.9816 67.5654 48.1238 68.7226 43.4904C68.7226 43.4904 69.9551 44.31 70.4594 42.6846C70.9624 41.0684 71.0012 38.39 71.6148 37.2866C72.2284 36.1831 72.2374 33.8481 70.6838 34.0495C69.1298 34.251 67.0928 23.1344 67.0928 23.1344L62.9924 19L44.0161 21.857L39.429 32.328L37.4818 36.38Z" fill="#A55F3E"/>
<path d="M41.5775 40C41.5775 40 40.9423 33.0823 37.672 35.9295C37.672 35.9295 35.3253 20.6068 39.4025 20.2794C39.4025 20.2794 39.0868 11.8699 47.3161 11.9836C55.5435 12.0927 62.2325 12.0427 62.2599 9C62.2599 9 67.797 12.3247 66.0326 15.6448C66.0326 15.6448 71.6189 17.1503 71.8947 24.4864C72.17 31.8225 71.8185 33.6144 71.8185 33.6144C71.8185 33.6144 70.1985 34.2057 69.5382 35.9567C69.5382 35.9567 69.0758 31.5723 67.6702 27.7064C66.1756 23.5949 64.5054 22.3215 64.5054 22.3215C63.9956 22.7262 53.8946 26.9924 44.4683 25.0821C44.4683 25.0821 43.2913 37.1347 41.5775 40Z" fill="#151724"/>
<path d="M42.0085 43.4804L42 40.8701C42 40.8701 43.2523 44.6029 47.0425 45.6601C50.8332 46.7216 52.2449 44.8552 56.2281 44.294C60.2119 43.7328 61.3026 45.1641 63.809 44.6681C66.7909 44.0721 68.6903 40 68.6903 40C68.6903 40 69.0428 42.545 68.9957 44.1634C68.9499 45.7775 61.5603 52.808 61.3695 53.0342L51.284 54L42.7382 46.2212L42.0085 43.4804Z" fill="#151724"/>
<path d="M61.958 48.1285C62.3204 48.8755 60.2927 50 57.6982 50C55.1043 50 52.9932 49.257 53 48.5623C53.0091 47.9679 55.1677 47 57.7621 47C60.3561 47 61.6975 47.5944 61.958 48.1285Z" fill="#A55F3E"/>
<path d="M23.0054 82.5789L26.5089 125.955L26.5538 126H89.0582L89.1013 125.955L91.9966 81.6067C92.0539 80.7291 91.381 79.9911 90.54 80.0001L24.4225 80.9452C23.5852 80.9587 22.9339 81.7058 23.0054 82.5789Z" fill="#DBDFE8"/>
<path d="M63 104C63 107.313 60.0901 110 56.5 110C52.9099 110 50 107.313 50 104C50 100.687 52.9099 98 56.5 98C60.0901 98 63 100.687 63 104Z" fill="white"/>
<path d="M86.7991 126H56.0729L57.1758 125H87L86.8407 125.982L86.7991 126ZM52.802 126H42L43.5656 125H54.0013L52.802 126Z" fill="#C1C6D5"/>
<path d="M35.2738 126H26.2385L26.1955 125.982L26 125H37L35.2738 126Z" fill="#C1C6D5"/>
<path d="M43.6943 125H37L51.0797 104.84C51.0797 104.897 51.0778 104.953 51.0778 105.009C51.0778 106.854 51.9571 108.516 53.3501 109.648L43.6943 125ZM54.837 99.4601L68.429 80H68.545H72L59.9397 99.169C59.2595 98.953 58.5278 98.8357 57.7669 98.8357C56.7164 98.8357 55.7215 99.061 54.837 99.4601Z" fill="#E2E5ED"/>
<path d="M52.5642 109C50.9922 107.849 50 106.158 50 104.281C50 104.224 50.0021 104.166 50.0021 104.109L54.242 98.6352C55.2401 98.2292 56.3627 98 57.5482 98C58.4068 98 59.2324 98.1194 60 98.3391L52.5642 109Z" fill="white"/>
<path d="M41.4376 126H35L36.735 125H43L41.4376 126Z" fill="#CDD1DD"/>
<path d="M57.3354 125H54L61.3061 109.652C62.6475 108.524 63.4921 106.89 63.4921 105.07C63.4921 105.065 63.4921 105.06 63.4921 105.056L75.4076 80.0234L77 80L57.3354 125Z" fill="#E2E5ED"/>
<path d="M62 109L63 105C63 105.004 63 105.008 63 105.012C63 106.597 62.6137 108.018 62 109Z" fill="white"/>
<path d="M55.9914 126H53L54.0968 125H57L55.9914 126Z" fill="#CDD1DD"/>
<path d="M88.4099 95.0002C84.6335 95.0315 80.9212 94.9957 79.7459 95.6045C78.5721 96.2179 77.3427 96.6567 77.0347 97.664C76.8309 98.3311 77.5465 100.561 78.6151 101.192C79.5273 101.738 80.5007 103.533 80.9565 103.694C81.4086 103.856 85.6762 104.142 86.6573 105.834C87.6384 107.531 90.9848 106.99 92.4494 108.386C93.9126 109.774 96.4072 110.343 97.9053 109.792C99.4039 109.237 100.486 103.426 99.778 102.562C99.0734 101.702 96.6946 100.001 94.7588 98.1878C93.7031 97.1984 91.0259 94.9778 88.4099 95.0002Z" fill="#A55F3E"/>
<path d="M25.1363 103C22.0562 105.589 22.2748 116.557 26 115.978L25.1363 103Z" fill="#A55F3E"/>
<path d="M343 334H327.444L327 332H327.002L327.444 334H343Z" fill="#6B4B37"/>
<path d="M278 334.985L217 341V266L275.193 272.015L278 334.985Z" fill="#C9C94F"/>
<path d="M305.59 304.558C311.345 306.872 315 311.279 315 318.296C315 325.317 292.145 344.357 269.285 346.699C246.428 349.036 235 337.008 235 337.008C235 337.008 264.916 328.655 274.998 321.306C285.086 313.953 297.186 301.179 305.59 304.558Z" fill="#694329"/>
<path d="M265.81 304H226.855L224 298.135C224 298.135 225.127 281.977 225.696 275.148C225.554 276.918 224.39 293.795 231.124 296.424C234.685 297.812 245.645 298.162 255.702 298.162C265.686 298.162 274.779 297.821 274.85 297.816L274.854 297.844L275 303.53L265.81 304ZM225.696 275.148C225.702 275.051 225.708 275 225.708 275C225.704 275.046 225.699 275.097 225.696 275.148Z" fill="#BCBF4F"/>
<path d="M205.024 345C195.218 345.916 192.11 347.485 189.689 350.614C187.271 353.747 191.548 362.204 197.358 363.768C203.164 365.337 226.431 358.487 233.973 356.901C241.517 355.311 205.024 345 205.024 345Z" fill="#4C3E35"/>
<path d="M267.176 359.521C271.623 359.521 277.335 361.534 286.544 360.863C295.753 360.192 298.294 356.836 297.974 350.129C297.658 343.417 293.238 339.723 282.586 341.404C271.938 343.084 264 345.093 264 345.093L267.176 359.521Z" fill="#4C3E35"/>
<path d="M262.962 363.997C267.419 364.305 272.341 344.013 270.664 341.683C268.991 339.348 254.589 339.679 235.501 331.02C216.412 322.361 206.029 303.04 196.987 304.037C187.944 305.039 181.917 312.701 180.243 317.361C178.569 322.03 185.601 330.358 200.003 339.017C214.404 347.676 253.249 363.335 262.962 363.997Z" fill="#7A553C"/>
<path d="M217 321C213.66 318.56 210.697 316.095 208 314L217 317.553V321Z" fill="#CCBDA7"/>
<path d="M221 324C219.633 323.087 218.303 322.168 217 321.249V315L219.249 315.868L221 324Z" fill="#A59C3B"/>
<path d="M224 329C220.702 327.826 216.341 326.006 211.873 323.366C202.717 317.965 202.283 315.083 203.485 310L208.317 311.887C211.793 314.554 215.612 317.691 219.916 320.798C220.815 321.443 221.732 322.088 222.675 322.729L224 329Z" fill="#64422D"/>
<path d="M278 327L278.84 323.056C281.772 321.776 284.536 320.756 291.603 316.67C298.134 312.898 303.475 308.253 306.173 304C308.05 304.917 309.674 306.09 311 307.532C309.735 310.151 290.1 322.546 278 327Z" fill="#56341F"/>
<path d="M222.807 301C220.19 301.342 217.579 301.72 214.96 302.317C212.005 302.995 209.043 303.528 206.054 303.706C205.929 307.533 206.011 310.472 206.402 311.647C207.717 315.592 225.173 327 225.173 327C225.173 327 233.1 321.961 235 316.476L222.069 305.333L222.807 301Z" fill="#F0BB8F"/>
<path d="M246.244 244.198C239.284 248.361 229.352 248.469 220.403 251.589C211.453 254.713 211.122 260.259 209.133 272.053C207.757 280.218 206.319 294.575 206 304C209.17 303.797 212.308 303.165 215.435 302.41C217.846 301.829 221.616 301.466 224.025 301.159L224.968 279.689L255 274.691V244L246.244 244.198Z" fill="#C9C94F"/>
<path d="M286.39 292C290.643 288.528 295.986 286.576 301 284.346C299.225 281.943 297.333 279.276 295.479 276.218C288.695 265.042 287.268 261.188 280.925 257.593C275.352 254.43 262.69 246.63 260.653 244H255V273.593L270.272 277.452C270.272 277.452 285.042 290.567 286.39 292Z" fill="#C9C94F"/>
<path d="M287.876 294.563C291.517 298.546 294.16 302.207 294.16 302.207C294.16 302.207 281.177 317.773 277.467 317.755C273.756 317.746 269.011 317.542 267.006 318.856C265.005 320.17 255.658 326.741 258.551 326.973C259.747 327.069 260.108 326.891 260.685 326.719C261.503 326.473 262.76 326.227 267.45 326.741C275.466 327.614 274.348 325.864 278.58 323.89C282.808 321.921 284.813 321.703 293.712 316.882C302.615 312.066 309.292 305.709 309.957 300.893C310.438 297.455 306.811 293.194 302.278 287C297.339 289.233 292.053 291.097 287.876 294.563Z" fill="#F0BB8F"/>
<path d="M245.842 247.398C243.687 249.025 243.218 252.037 245.54 257.039C246.976 260.128 250.419 268.504 253.085 274C253.085 274 257.928 264.543 261.093 259.917C263.26 256.759 264.744 253.394 263.608 251.033C260.806 245.225 245.842 247.398 245.842 247.398Z" fill="#F0BB8F"/>
<path d="M284.161 291.313C283.208 292.176 286.701 297.952 288.961 298C291.037 298.048 298.481 288.871 301.239 287.846C303.905 286.858 298.826 279.976 297.327 280C295.828 280.029 286.347 289.348 284.161 291.313Z" fill="#B0B54F"/>
<path d="M203.187 300.738C202.853 301.71 202.839 308.133 204.237 309.256C205.634 310.384 222.877 310.78 223.479 306.34C224.085 301.905 224.64 298.081 222.219 298.003C219.801 297.934 212.224 299.243 209.02 299.243C205.817 299.243 203.851 298.799 203.187 300.738Z" fill="#B0B54F"/>
<path d="M222.424 337L217.029 306.258C216.823 305.079 217.735 304 218.942 304H282.058C283.3 304 284.224 305.145 283.952 306.352L277.038 337H222.424Z" fill="#DBDFE8"/>
<path d="M238 337H224.389L224 332H224.002L224.389 337H238Z" fill="#6B4B37"/>
<path d="M277.45 337H260.48L261.82 332H278L277.45 337ZM255.486 337H248.07L249.858 332H257.01L255.486 337ZM239.46 337H224.427L224 332H241.631L239.46 337Z" fill="#C1C6D5"/>
<path d="M258 317.998C258 319.659 255.536 321 252.501 321C249.462 321 247 319.659 247 317.998C247 316.341 249.462 315 252.501 315C255.536 315 258 316.341 258 317.998Z" fill="white"/>
<path d="M247.26 332H239L249.069 321.309C249.096 321.309 249.124 321.309 249.152 321.309C252.209 321.309 254.69 319.996 254.69 318.37C254.69 317.696 254.259 317.07 253.531 316.574L265.373 304H269L247.26 332Z" fill="#E6E9EF"/>
<path d="M246.28 337H238L240.088 332H248L246.28 337Z" fill="#D4D7E2"/>
<path d="M252.089 321C252.059 321 252.03 321 252 321L256.762 315C257.54 315.628 258 316.421 258 317.275C258 319.336 255.351 321 252.089 321Z" fill="white"/>
<path d="M260.27 332H255L275.241 304H278L260.27 332Z" fill="#E6E9EF"/>
<path d="M259.731 337H255L256.444 332H261L259.731 337Z" fill="#D4D7E2"/>
<path d="M256.853 209.915C254.979 207.692 252.802 201.045 259.863 201C268.499 200.943 266.356 209.858 263.438 211.529C260.524 213.192 256.853 209.915 256.853 209.915Z" fill="#403834"/>
<path d="M258 209L258.211 210.113C258.211 210.113 259.44 212.208 262.306 211.983C265.177 211.762 266 210.707 266 210.707V209.753C266 209.753 259.805 210.746 258 209Z" fill="#694329"/>
<path d="M263.611 250.101C260.793 245.636 245.747 247.306 245.747 247.306C244.773 247.87 244.189 248.673 244 249.709C245.022 251.369 251.444 256.546 262.901 254.548C263.933 252.902 264.383 251.327 263.611 250.101Z" fill="#E8AB79"/>
<path d="M252 251.885C255.658 252.492 260.365 250.671 263.038 247.029C265.707 243.392 266.952 238.945 268.282 235.418C269.612 231.9 272.54 220.243 269.992 216.082C267.444 211.915 262.59 209.75 258.735 209L252 251.885Z" fill="#F0BB8F"/>
<path d="M268.765 232.618C269.421 231.85 271.165 231.582 270.987 233.102C270.806 234.623 269.487 235.37 269.186 237.506C268.885 239.652 268.067 242.235 266.404 241.983C264.737 241.72 268.765 232.618 268.765 232.618Z" fill="#F0BB8F"/>
<path d="M254.333 252C250.712 251.394 246.843 248.148 245.439 243.842C244.028 239.527 244.2 234.918 244.025 231.149C243.843 227.384 244.615 215.398 248.27 212.267C251.931 209.14 257.148 208.654 261 209.186L254.333 252Z" fill="#F0BB8F"/>
<path d="M242.694 226.473C241.952 225.305 239.331 224.138 239.033 225.904C238.738 227.671 240.518 229.156 240.18 231.668C239.834 234.175 240.13 237.432 242.835 237.983C245.536 238.52 242.694 226.473 242.694 226.473Z" fill="#F0BB8F"/>
<path d="M270.115 216.872C271.812 220.379 270.741 228.66 269.619 234.166C269.607 234.197 268.592 236.359 268.009 238C268.009 238 268.253 228.282 266.04 226.8C263.823 225.333 263.422 227.986 258 226.851L260.217 209C263.607 209.833 267.875 212.241 270.115 216.872Z" fill="#403834"/>
<path d="M248.198 212.406C245.412 214.877 244.296 222.651 244 227.979C243.998 228.003 244.496 230.31 244.672 232C244.672 232 247.805 223.393 250.591 222.919C253.373 222.464 252.348 224.848 258.49 225.911L261 209.194C257.126 208.639 251.88 209.146 248.198 212.406Z" fill="#403834"/>
<path d="M253.535 338C253.288 338 253.04 338 252.793 337.998C250.076 337.731 247.13 337.406 244 337H278C271.709 337.746 262.622 338 253.535 338Z" fill="#56341F"/>
<path d="M252 338C239.008 337.98 226.207 337.315 224 337H244.184C246.967 337.406 249.584 337.733 252 338Z" fill="#64422D"/>
</svg>
