<svg width="1123" height="367" viewBox="0 0 1123 367" fill="none" xmlns="http://www.w3.org/2000/svg">
<g clip-path="url(#clip0)">
<path d="M106.704 176.894H76.9764L77.0684 102.665H106.798L106.704 176.894ZM136.526 72.9352H47.3417V87.8005H32.4764V191.85H47.3417V206.714H136.526V191.85H151.391V87.8005H136.526V72.9352Z" fill="#001B01"/>
<path d="M215.803 102.664H245.531V152.212H215.803V102.664ZM186.075 87.8H171.209V206.713H220.756V176.985H240.576V206.713H290.124V176.985H270.305V157.167H290.124V72.9361H186.075V87.8Z" fill="#001B01"/>
<path d="M349.581 102.664H418.946V72.9362H324.806V87.8002H309.942V191.849H324.806V206.714H428.855V176.986H349.581V102.664Z" fill="#001B01"/>
<path d="M160.686 78.5574L127.699 38.0854C127.058 37.3001 126.098 36.8427 125.083 36.8427H108.625C107.646 36.8427 106.714 36.4187 106.074 35.6787L91.8701 19.2881V19.2494L77.6635 35.6387C77.0235 36.3787 76.0928 36.804 75.1128 36.804C75.1128 36.804 56.6795 37.2601 56.0395 38.0467L23.0515 78.5174C22.5261 79.1627 22.2568 79.98 22.2968 80.812L26.2675 150.288C26.3088 151.144 26.6728 151.952 27.2888 152.549L59.6328 183.928C61.7995 186.029 65.4248 184.449 65.3581 181.432L64.1115 137.415C64.0888 136.335 63.5488 135.332 62.6621 134.715L37.7288 117.392C36.8208 116.761 36.2781 115.725 36.2781 114.62V104.38C36.2781 103.452 36.6608 102.565 37.3341 101.928L55.5861 84.6627C56.8968 83.4227 58.9515 83.4334 60.2515 84.6867L91.8701 115.215V115.255L123.489 84.7267C124.786 83.4734 126.841 83.4627 128.153 84.7027L146.403 101.968C147.078 102.605 147.459 103.492 147.459 104.42V114.66C147.459 115.765 146.918 116.801 146.01 117.432L121.075 134.755C120.189 135.371 119.651 136.375 119.627 137.453L118.381 181.472C118.315 184.489 121.938 186.069 124.105 183.968L156.45 152.589C157.065 151.992 157.43 151.184 157.471 150.328L161.441 80.852C161.482 80.02 161.213 79.2027 160.686 78.5574Z" fill="#DD7C36"/>
<path d="M36.2748 104.42V114.66C36.2748 115.765 36.8161 116.801 37.7255 117.432L62.6588 134.755C63.5455 135.371 64.0841 136.375 64.1081 137.453L65.3548 181.472C65.4201 184.489 61.7961 186.069 59.6295 183.968L27.2855 152.589C26.6695 151.992 26.3041 151.184 26.2628 150.328L22.2935 80.852L36.2748 104.42Z" fill="#FFD24A"/>
<path d="M147.464 104.42V114.66C147.464 115.765 146.922 116.801 146.014 117.432L121.08 134.755C120.193 135.371 119.656 136.375 119.632 137.453L118.384 181.472C118.32 184.489 121.942 186.069 124.109 183.968L156.454 152.589C157.069 151.992 157.434 151.184 157.476 150.328L161.445 80.852L147.464 104.42Z" fill="#FFD24A"/>
<path d="M108.625 36.8432C107.646 36.8432 106.714 36.4179 106.074 35.6779L91.8704 19.2885V19.2486L77.6638 35.6392C77.0238 36.3779 76.0931 36.8032 75.1131 36.8032L91.8704 115.215L108.625 36.8432Z" fill="#FFD24A"/>
<path d="M170.241 0.289158C178.678 8.71449 202.144 38.3332 156.874 72.3398C156.732 72.4465 156.565 72.5132 156.388 72.5318C153.456 72.8398 127.956 74.7638 135.493 47.4105C135.557 47.1785 135.705 46.9785 135.908 46.8492C139.498 44.5412 172.846 22.4678 168.601 1.18516C168.41 0.233159 169.553 -0.397507 170.241 0.289158Z" fill="#FAF3B5"/>
<path d="M13.7552 0.289158C5.31788 8.71449 -18.1475 38.3332 27.1205 72.3398C27.2632 72.4465 27.4312 72.5132 27.6085 72.5318C30.5392 72.8398 56.0405 74.7638 48.5019 47.4105C48.4379 47.1785 48.2899 46.9785 48.0885 46.8492C44.4979 44.5412 11.1485 22.4678 15.3952 1.18516C15.5859 0.233159 14.4432 -0.397507 13.7552 0.289158Z" fill="#FCF8D9"/>
<path d="M463.539 112.574H448.675V206.714H567.588V176.986H488.312V157.166H547.77V127.438H488.312V102.664H567.588V72.935H463.539V112.574Z" fill="#46C242"/>
<path d="M909.467 102.664H939.195V152.212H909.467V102.664ZM879.737 87.8H864.873V206.713H914.42V176.985H934.24V206.713H983.787V176.985H963.968V157.167H983.787V72.9361H879.737V87.8Z" fill="#46C242"/>
<path d="M1077.93 152.212H1048.2V102.664H1077.93V152.212ZM1107.65 87.8V72.9361H1018.47V87.8H1003.61V206.713H1053.15V176.985H1072.97V206.713H1122.52V87.8H1107.65Z" fill="#46C242"/>
<path d="M448.675 58.0721H428.856V102.664H448.675V58.0721Z" fill="#001B01"/>
<path d="M602.272 87.8002H587.408V157.166H666.684V176.986H587.408V206.714H691.457V191.85H706.321V127.438H627.045V102.664H706.321V72.9362H602.272V87.8002Z" fill="#46C242"/>
<path d="M726.141 102.664H765.779V206.714H805.417V102.664H845.055V72.9362H726.141V102.664Z" fill="#46C242"/>
<path d="M474.384 267.219H468.655C467.404 267.219 466.203 267.709 465.055 268.69L462.417 270.87C461.405 271.714 460.897 272.863 460.897 274.317V288.513C460.897 289.662 461.456 290.743 462.571 291.758L465.359 294.242C466.239 294.986 467.167 295.358 468.147 295.358H475.093C476.107 295.358 477.223 294.85 478.439 293.835L485.183 288.107C486.229 287.194 486.753 286.079 486.753 284.761V278.322C486.753 276.767 486.163 275.499 484.979 274.521L478.033 268.587C477.053 267.675 475.836 267.219 474.384 267.219ZM479.249 325.979H460.796C459.612 325.979 458.608 325.574 457.78 324.762C456.951 323.951 456.537 322.938 456.537 321.721C456.537 320.538 456.951 319.541 457.78 318.729C458.608 317.918 459.612 317.513 460.796 317.513H479.249C480.365 317.513 481.412 317.09 482.395 316.246L485.284 313.761C486.264 313.018 486.753 312.037 486.753 310.821V297.841C482.765 301.863 478.877 303.874 475.093 303.874H468.553C465.173 303.874 462.132 302.709 459.427 300.377L456.233 297.537C455.185 296.658 454.281 295.374 453.521 293.685C452.76 291.994 452.38 290.338 452.38 288.715V274.621C452.38 272.627 452.76 270.734 453.521 268.942C454.281 267.151 455.185 265.817 456.233 264.938L459.732 261.946C462.233 259.783 465.173 258.702 468.553 258.702H474.688C478.033 258.702 481.076 259.885 483.813 262.25L486.753 264.735L486.652 263.062C486.652 261.913 487.076 260.915 487.92 260.071C488.764 259.226 489.761 258.803 490.912 258.803C492.093 258.803 493.117 259.218 493.979 260.046C494.841 260.874 495.272 261.879 495.272 263.062V310.821C495.272 314.437 493.817 317.529 490.912 320.098L487.464 323.089C486.584 323.867 485.343 324.543 483.737 325.117C482.132 325.691 480.636 325.979 479.249 325.979Z" fill="#001B01"/>
<path d="M549.189 293.583L548.937 289.983C548.901 288.767 548.479 287.752 547.666 286.941C546.855 286.131 545.857 285.724 544.673 285.724H527.875C526.691 285.724 525.683 286.139 524.855 286.967C524.026 287.795 523.611 288.8 523.611 289.983V294.749C523.611 295.897 524.035 296.895 524.881 297.74C525.726 298.585 526.725 299.007 527.875 299.007H539.902L549.189 293.583ZM527.889 277.004H544.594C545.507 277.004 546.827 277.207 548.554 277.611L548.454 271.579C548.454 270.396 548.039 269.391 547.211 268.563C546.381 267.735 545.373 267.32 544.187 267.32H527.981C526.829 267.32 525.83 266.897 524.983 266.053C524.137 265.208 523.714 264.211 523.714 263.061C523.714 261.879 524.127 260.873 524.957 260.045C525.786 259.217 526.794 258.804 527.979 258.804H544.175C547.697 258.804 550.701 260.037 553.189 262.504C555.677 264.972 556.973 267.997 557.074 271.58L558.138 303.469C558.138 304.652 557.715 305.657 556.871 306.485C556.026 307.313 555.029 307.728 553.881 307.728C552.662 307.728 551.631 307.313 550.786 306.485C549.941 305.657 549.519 304.652 549.519 303.469L542.31 307.728H527.89C524.302 307.728 521.255 306.477 518.751 303.976C516.246 301.475 514.994 298.433 514.994 294.851V289.881C514.994 286.333 516.254 283.3 518.775 280.781C521.298 278.263 524.335 277.004 527.889 277.004Z" fill="#001B01"/>
<path d="M576.846 303.469V263.062C576.846 261.879 577.26 260.874 578.089 260.046C578.917 259.218 579.922 258.803 581.105 258.803C583.302 258.803 584.688 259.885 585.262 262.049C587.625 259.817 590.258 258.702 593.16 258.702C596.568 258.702 599.37 260.155 601.564 263.062C604.262 260.155 607.234 258.702 610.474 258.702C613.106 258.702 615.392 259.639 617.333 261.515C619.274 263.391 620.313 265.782 620.448 268.69L621.664 303.469C621.664 304.618 621.241 305.615 620.397 306.461C619.552 307.305 618.553 307.727 617.405 307.727C616.221 307.727 615.208 307.305 614.364 306.461C613.518 305.615 613.078 304.618 613.045 303.469L612.032 270.058C611.964 268.233 611.405 267.321 610.358 267.321C609.782 267.321 609.193 267.574 608.584 268.081L603.514 272.339V303.469C603.514 304.618 603.1 305.598 602.272 306.41C601.442 307.221 600.438 307.626 599.256 307.626C598.105 307.626 597.108 307.213 596.264 306.385C595.42 305.555 594.996 304.551 594.996 303.367V269.501C594.996 268.047 594.374 267.321 593.13 267.321C592.525 267.321 591.969 267.541 591.466 267.979L585.364 273.151V303.469C585.364 304.618 584.958 305.615 584.148 306.461C583.336 307.305 582.356 307.727 581.206 307.727C580.022 307.727 579.001 307.305 578.14 306.461C577.277 305.615 576.846 304.618 576.846 303.469Z" fill="#001B01"/>
<path d="M657.66 236.597H662.123C663.304 236.597 664.309 237.012 665.137 237.84C665.965 238.668 666.38 239.673 666.38 240.856V244.506C666.38 245.689 665.965 246.712 665.137 247.573C664.309 248.436 663.304 248.866 662.123 248.866H657.559C656.343 248.866 655.32 248.428 654.492 247.548C653.663 246.669 653.267 245.689 653.3 244.608L653.403 240.856C653.403 239.673 653.815 238.668 654.643 237.84C655.471 237.012 656.476 236.597 657.66 236.597ZM675 307.626H649.041C647.857 307.626 646.853 307.212 646.024 306.384C645.196 305.556 644.783 304.55 644.783 303.368C644.783 302.218 645.196 301.221 646.024 300.376C646.853 299.532 647.857 299.109 649.041 299.109H657.761V267.32H649.143C647.96 267.32 646.955 266.898 646.127 266.053C645.299 265.208 644.884 264.21 644.884 263.062C644.884 261.878 645.299 260.857 646.127 259.994C646.955 259.133 647.96 258.702 649.143 258.702H662.123C663.304 258.702 664.309 259.133 665.137 259.994C665.965 260.857 666.38 261.878 666.38 263.062V299.109H674.899C676.08 299.109 677.104 299.522 677.965 300.35C678.827 301.18 679.257 302.185 679.257 303.368C679.257 304.55 678.835 305.556 677.991 306.384C677.145 307.212 676.148 307.626 675 307.626Z" fill="#001B01"/>
<path d="M722.758 267.32V303.468C722.758 304.652 722.335 305.658 721.491 306.486C720.646 307.314 719.647 307.728 718.499 307.728C717.283 307.728 716.251 307.314 715.406 306.486C714.562 305.658 714.139 304.652 714.139 303.468V267.32H709.779C708.595 267.32 707.591 266.898 706.763 266.054C705.934 265.208 705.521 264.211 705.521 263.062C705.521 261.947 705.901 260.958 706.662 260.096C707.422 259.235 708.461 258.803 709.779 258.803H714.241V255.508C714.241 251.148 715.735 247.531 718.729 244.658C721.719 241.786 725.446 240.348 729.906 240.348H739.895C741.077 240.348 742.082 240.771 742.911 241.616C743.738 242.46 744.153 243.492 744.153 244.71C744.153 245.858 743.73 246.855 742.886 247.7C742.041 248.544 741.043 248.967 739.895 248.967H729.906C727.879 248.967 726.197 249.576 724.862 250.792C723.526 252.01 722.859 253.582 722.859 255.508V258.803H731.377C732.525 258.77 733.523 259.175 734.369 260.02C735.213 260.866 735.635 261.879 735.635 263.062C735.635 264.211 735.213 265.208 734.369 266.054C733.523 266.898 732.525 267.32 731.377 267.32H722.758Z" fill="#001B01"/>
<path d="M783.09 236.597H787.551C788.734 236.597 789.739 237.012 790.567 237.84C791.395 238.668 791.81 239.673 791.81 240.856V244.506C791.81 245.689 791.395 246.712 790.567 247.573C789.739 248.436 788.734 248.866 787.551 248.866H782.988C781.772 248.866 780.748 248.428 779.92 247.548C779.092 246.669 778.695 245.689 778.728 244.608L778.831 240.856C778.831 239.673 779.244 238.668 780.072 237.84C780.9 237.012 781.906 236.597 783.09 236.597ZM800.428 307.626H774.471C773.287 307.626 772.283 307.212 771.454 306.384C770.624 305.556 770.212 304.55 770.212 303.368C770.212 302.218 770.624 301.221 771.454 300.376C772.283 299.532 773.287 299.109 774.471 299.109H783.191V267.32H774.572C773.39 267.32 772.384 266.898 771.556 266.053C770.727 265.208 770.314 264.21 770.314 263.062C770.314 261.878 770.727 260.857 771.556 259.994C772.384 259.133 773.39 258.702 774.572 258.702H787.551C788.734 258.702 789.739 259.133 790.567 259.994C791.395 260.857 791.81 261.878 791.81 263.062V299.109H800.327C801.51 299.109 802.532 299.522 803.395 300.35C804.256 301.18 804.687 302.185 804.687 303.368C804.687 304.55 804.266 305.556 803.42 306.384C802.575 307.212 801.578 307.626 800.428 307.626Z" fill="#001B01"/>
<path d="M867.504 307.728H849.302C846.09 307.728 843.354 306.764 841.089 304.839L832.825 297.639C830.189 295.441 828.87 292.468 828.87 288.716V277.613C828.736 273.996 830.222 270.853 833.332 268.183L840.785 261.744C843.185 259.784 845.754 258.804 848.49 258.804H867.605C868.788 258.804 869.793 259.217 870.621 260.045C871.449 260.873 871.864 261.879 871.864 263.061C871.864 264.279 871.449 265.292 870.621 266.104C869.793 266.915 868.788 267.32 867.605 267.32H849.302C848.153 267.32 847.054 267.777 846.008 268.689L839.162 274.52C838.048 275.467 837.489 276.733 837.489 278.323V288.716C837.489 289.831 837.929 290.777 838.809 291.555L846.31 297.943C847.257 298.788 848.508 299.211 850.064 299.211H867.504C868.652 299.211 869.649 299.624 870.494 300.452C871.34 301.281 871.762 302.285 871.762 303.469C871.762 304.652 871.349 305.657 870.521 306.485C869.693 307.313 868.686 307.728 867.504 307.728Z" fill="#001B01"/>
<path d="M925.477 293.583L925.223 289.983C925.189 288.767 924.767 287.752 923.954 286.941C923.143 286.131 922.145 285.724 920.961 285.724H904.163C902.979 285.724 901.971 286.139 901.143 286.967C900.314 287.795 899.899 288.8 899.899 289.983V294.749C899.899 295.897 900.323 296.895 901.17 297.74C902.014 298.585 903.013 299.007 904.163 299.007H916.19L925.477 293.583ZM904.177 277.004H920.882C921.795 277.004 923.115 277.207 924.841 277.611L924.743 271.579C924.743 270.396 924.327 269.391 923.498 268.563C922.669 267.735 921.661 267.32 920.475 267.32H904.27C903.117 267.32 902.118 266.897 901.273 266.053C900.425 265.208 900.002 264.211 900.002 263.061C900.002 261.879 900.415 260.873 901.245 260.045C902.074 259.217 903.082 258.804 904.266 258.804H920.465C923.986 258.804 926.99 260.037 929.478 262.504C931.965 264.972 933.261 267.997 933.362 271.58L934.426 303.469C934.426 304.652 934.005 305.657 933.159 306.485C932.314 307.313 931.317 307.728 930.169 307.728C928.95 307.728 927.921 307.313 927.075 306.485C926.23 305.657 925.807 304.652 925.807 303.469L918.599 307.728H904.178C900.589 307.728 897.545 306.477 895.039 303.976C892.534 301.475 891.282 298.433 891.282 294.851V289.881C891.282 286.333 892.542 283.3 895.063 280.781C897.585 278.263 900.623 277.004 904.177 277.004Z" fill="#001B01"/>
<path d="M980.156 307.728H974.732C971.52 307.728 968.784 306.764 966.517 304.839L958.255 297.639C955.619 295.441 954.3 292.468 954.3 288.716V277.613C954.165 273.996 955.652 270.853 958.761 268.183L966.215 261.744C968.615 259.784 971.184 258.804 973.92 258.804H993.033C994.217 258.804 995.223 259.217 996.051 260.045C996.879 260.873 997.293 261.879 997.293 263.061C997.293 264.279 996.879 265.292 996.051 266.104C995.223 266.915 994.217 267.32 993.033 267.32H974.732C973.583 267.32 972.484 267.777 971.436 268.689L964.592 274.52C963.476 275.467 962.919 276.733 962.919 278.323V288.716C962.919 289.831 963.357 290.777 964.237 291.555L971.74 297.943C972.687 298.788 973.937 299.211 975.492 299.211H992.933C994.081 299.211 995.079 299.624 995.924 300.452C996.769 301.281 997.191 302.285 997.191 303.469C997.191 304.652 996.777 305.657 995.949 306.485C995.121 307.313 994.116 307.728 992.933 307.728H988.675V321.619C988.675 322.836 988.26 323.867 987.432 324.712C986.604 325.557 985.599 325.979 984.415 325.979H967.179C966.028 325.979 965.031 325.557 964.185 324.712C963.341 323.867 962.919 322.869 962.919 321.721C962.919 320.537 963.333 319.515 964.161 318.653C964.989 317.792 965.995 317.361 967.179 317.361H980.156V307.728Z" fill="#001B01"/>
<path d="M1050.91 293.583L1050.65 289.983C1050.62 288.767 1050.2 287.752 1049.38 286.941C1048.57 286.131 1047.57 285.724 1046.39 285.724H1029.59C1028.41 285.724 1027.4 286.139 1026.57 286.967C1025.74 287.795 1025.33 288.8 1025.33 289.983V294.749C1025.33 295.897 1025.75 296.895 1026.6 297.74C1027.44 298.585 1028.44 299.007 1029.59 299.007H1041.62L1050.91 293.583ZM1058.08 248.36L1050.38 253.024C1049.43 253.497 1048.67 253.733 1048.09 253.733H1045.41C1045.14 253.733 1044.68 253.632 1044.04 253.429L1031.06 249.069H1029.84L1023.4 253.024C1022.63 253.497 1021.83 253.733 1021.02 253.733C1019.87 253.733 1018.87 253.277 1018.03 252.364C1017.18 251.452 1016.76 250.404 1016.76 249.221C1016.76 247.733 1017.45 246.568 1018.84 245.723L1026.5 241.059C1027.14 240.653 1027.9 240.449 1028.78 240.449H1031.51C1031.99 240.449 1032.43 240.517 1032.83 240.653L1046.12 245.115H1046.88L1053.52 241.059C1054.3 240.585 1055.07 240.349 1055.85 240.349C1057.03 240.349 1058.05 240.805 1058.89 241.717C1059.74 242.631 1060.16 243.677 1060.16 244.86C1060.16 246.348 1059.47 247.515 1058.08 248.36ZM1029.61 277.004H1046.31C1047.22 277.004 1048.54 277.207 1050.27 277.611L1050.17 271.579C1050.17 270.396 1049.76 269.391 1048.93 268.563C1048.1 267.735 1047.09 267.32 1045.9 267.32H1029.7C1028.55 267.32 1027.55 266.897 1026.7 266.053C1025.85 265.208 1025.43 264.211 1025.43 263.061C1025.43 261.879 1025.84 260.873 1026.67 260.045C1027.5 259.217 1028.51 258.804 1029.7 258.804H1045.89C1049.41 258.804 1052.42 260.037 1054.91 262.504C1057.39 264.972 1058.69 267.997 1058.79 271.58L1059.86 303.469C1059.86 304.652 1059.43 305.657 1058.59 306.485C1057.74 307.313 1056.75 307.728 1055.6 307.728C1054.38 307.728 1053.35 307.313 1052.5 306.485C1051.66 305.657 1051.24 304.652 1051.24 303.469L1044.03 307.728H1029.61C1026.02 307.728 1022.97 306.477 1020.47 303.976C1017.96 301.475 1016.71 298.433 1016.71 294.851V289.881C1016.71 286.333 1017.97 283.3 1020.49 280.781C1023.01 278.263 1026.05 277.004 1029.61 277.004Z" fill="#001B01"/>
<path d="M1088.15 274.52V291.758C1088.15 293.312 1088.7 294.547 1089.82 295.459L1093.01 298.196C1093.72 298.804 1094.72 299.108 1096 299.108H1105.89C1107.34 299.108 1108.66 298.586 1109.84 297.538L1112.43 295.256C1113.48 294.444 1114 293.312 1114 291.859V274.622C1114 272.931 1113.48 271.682 1112.43 270.87L1109.44 268.487C1108.43 267.642 1107.24 267.219 1105.89 267.219H1097.07C1095.14 267.219 1093.66 267.676 1092.61 268.588L1089.72 271.072C1088.67 271.951 1088.15 273.1 1088.15 274.52ZM1122.52 274.164V292.163C1122.52 295.983 1120.72 299.515 1117.12 302.759C1113.52 306.004 1109.81 307.627 1105.99 307.627H1096C1092.12 307.627 1088.4 305.979 1084.85 302.683C1081.3 299.388 1079.53 295.882 1079.53 292.163V274.164C1079.53 270.447 1081.26 266.94 1084.72 263.646C1088.19 260.35 1091.95 258.702 1096 258.702H1105.99C1109.81 258.634 1113.52 260.223 1117.12 263.467C1120.72 266.712 1122.52 270.278 1122.52 274.164Z" fill="#001B01"/>
</g>
<defs>
<clipPath id="clip0">
<rect width="1122.52" height="366.06" fill="white"/>
</clipPath>
</defs>
</svg>
