<svg viewBox="0 -1 1500 208" fill="none" xmlns="http://www.w3.org/2000/svg">
<path d="M0 208H1500V119.788H1454.44H1413.38L1386.85 109.764L1316.26 104.251L1289.72 93.2241L1249.67 87.2096L1196.6 93.2241H1128L1029.37 58.1398L977.303 50.1205L903.705 68.6651L825.1 76.6843L667.39 36.5879L635.347 23.5566L560.748 -1.52588e-05H536.215L494.159 18.5446L465.621 23.5566H447.096L416.555 18.5446L374.499 7.01686L346.963 -1.52588e-05H332.443H311.916L289.386 7.01686L261.849 18.5446L239.319 23.5566H219.793L174.733 7.01686H95.1268L73.5981 18.5446L0 58.1398V208Z" fill="#18201B"/>
</svg>
