<svg viewBox="0 -1 1500 208" fill="none" xmlns="http://www.w3.org/2000/svg">
<path d="M1500 208H0V119.788H45.5607H86.6155L113.151 109.764L183.745 104.251L210.28 93.2241L250.334 87.2096L303.405 93.2241H371.996L470.628 58.1398L522.697 50.1205L596.295 68.6651L674.9 76.6843L832.61 36.5879L864.653 23.5566L939.252 -1.52588e-05H963.785L1005.84 18.5446L1034.38 23.5566H1052.9L1083.44 18.5446L1125.5 7.01686L1153.04 -1.52588e-05H1167.56H1188.08L1210.61 7.01686L1238.15 18.5446L1260.68 23.5566H1280.21L1325.27 7.01686H1404.87L1426.4 18.5446L1500 58.1398V208Z" fill="#18201B"/>
</svg>
