<svg viewBox="0 1 1500 208" fill="none" xmlns="http://www.w3.org/2000/svg">
<path d="M0 0H1500V88.2121H1454.44H1413.38L1386.85 98.2362L1316.26 103.749L1289.72 114.776L1249.67 120.79L1196.6 114.776H1128L1029.37 149.86L977.303 157.88L903.705 139.335L825.1 131.316L667.39 171.412L635.347 184.443L560.748 208H536.215L494.159 189.455L465.621 184.443H447.096L416.555 189.455L374.499 200.983L346.963 208H332.443H311.916L289.386 200.983L261.849 189.455L239.319 184.443H219.793L174.733 200.983H95.1268L73.5981 189.455L0 149.86V0Z" fill="#18201B"/>
</svg>
