<svg width="1500" height="208" viewBox="0 0 1500 208" fill="none" xmlns="http://www.w3.org/2000/svg">
<path d="M1500 0H0V88.2121H45.5607H86.6155L113.151 98.2362L183.745 103.749L210.28 114.776L250.334 120.79L303.405 114.776H371.996L470.628 149.86L522.697 157.88L596.295 139.335L674.9 131.316L832.61 171.412L864.653 184.443L939.252 208H963.785L1005.84 189.455L1034.38 184.443H1052.9L1083.44 189.455L1125.5 200.983L1153.04 208H1167.56H1188.08L1210.61 200.983L1238.15 189.455L1260.68 184.443H1280.21L1325.27 200.983H1404.87L1426.4 189.455L1500 149.86V0Z" fill="#18201B"/>
</svg>
