<svg width="1920" height="213" viewBox="0 0 1920 213" fill="none" xmlns="http://www.w3.org/2000/svg">
<path d="M0 42.5L5.5 44L18 48L25.5 67L51 73L84 67H133C142.833 70.6667 163.2 78 166 78C168.8 78 225.167 83.3333 253 86C266 90.3333 293 99.2 297 100C301 100.8 356.667 103.333 384 104.5C390.833 101 405.4 94 409 94H477.5C493.333 101 526 115.3 530 116.5C535 118 593 143 602.5 143.5C610.1 143.9 650 147.333 669 149L718 139L752.5 130L848.5 116.5C880.5 125.5 945.4 143.5 949 143.5C952.6 143.5 1003.83 156.167 1029 162.5L1093 186.5L1193.5 212.5L1261.5 186.5C1269.33 183.667 1287.3 178.1 1296.5 178.5C1308 179 1335 186.5 1339.5 186.5C1344 186.5 1389 197 1393.5 199C1398 201 1441.5 212.5 1445 212.5C1448.5 212.5 1482.5 210.5 1487 208.5C1490.6 206.9 1513.17 195.833 1524 190.5L1577 183L1604.5 190.5L1643.5 199L1731.5 203L1777.5 183C1789 176.167 1812.9 162.3 1816.5 161.5C1820.1 160.7 1847.67 144.833 1861 137H1892L1915 127.5L1920 124.5V0H0L0 42.5Z" fill="#18201B"/>
</svg>
