<svg width="1856" height="844" viewBox="0 0 1856 844" fill="none" xmlns="http://www.w3.org/2000/svg">
<path d="M729 819.655L654 725.575L703 504.332L836 451.605C894.833 434.547 1013 400.947 1015 403.015C1017 405.082 1154.83 431.446 1223.5 444.37L1289.5 653.724C1269.17 699.558 1227.5 792.157 1223.5 795.878C1219.5 799.6 1131.83 824.999 1088.5 837.232L894 830.512L729 819.655Z" fill="#E2F5F1"/>
<path d="M729 806.217L719.5 765.38V732.814C726 724.715 739.3 707.484 740.5 703.349C741.7 699.214 747.667 669.921 750.5 655.792L761.5 599.447L787.5 553.441L819 522.426L859.5 503.299L908 474.869L940 458.844L973 464.013H1029.5L1059 451.607L1102.5 474.869L1132.5 491.41L1156 522.426L1161 553.441L1150 589.626L1128 661.478L1132.5 695.595L1150 750.906L1146.5 791.743V806.217H1245L1264 737.466L1348.5 441.785L1094 315.139L761.5 270.167L528.5 424.21L384 581.872C376.334 630.98 361.9 729.919 365.5 732.814C369.1 735.708 433 782.955 464.5 806.217L658 826.377L729 806.217Z" fill="#AB9C91"/>
<path d="M476 788.124L463 744.703L454 689.392L468.5 650.623L511.5 615.472L552.5 591.176L573.5 561.712L582.5 515.706L606.5 457.293L639 442.302L687.5 391.127L727 362.696L775 346.672L840 340.985L914 330.647L952 346.672L1054.5 372.518L1207.5 407.152L1222 448.505L1262.5 485.724L1272.5 535.349L1255 579.804L1216.5 625.293L1222 656.309L1244 689.392L1268 722.992L1325.5 757.109L1411 782.438H1801.5L1856 686.29V633.564L1304 201.416L717 174.536L306.5 379.755L60.5 722.992L115 788.124H476Z" fill="#6B594C"/>
<path d="M0.5 755.558L48 740.567C48 740.567 122.5 706.967 124.5 706.451C126.5 705.934 179.5 689.909 183 687.841C186.5 685.774 197 675.952 198.5 674.918C200 673.884 215.5 671.817 218 670.266C220.5 668.715 228.5 660.961 228.5 660.961L235 655.792L258.5 642.869L263 635.632L272.5 629.946L277 621.675L310.5 588.075C310.5 588.075 314.5 574.118 316 571.016C317.5 567.915 328.5 555.509 328.5 555.509L341 495.546L353 485.207H403.5L436.5 467.115L517 431.447V425.761L545.5 414.389V407.152L582 388.542L591 377.17L602.5 360.628L627.5 341.502L665.5 313.071L689.5 298.598L737 286.191L768 277.921L793 270.167L832.5 273.268L837.5 268.616L853.5 266.548L867 262.413H913L941.5 266.548L969 262.413L988 268.616H1007.5L1033.5 284.641L1077 294.462H1124.5L1198.5 307.385L1229.5 310.487L1291 338.918L1366 376.136L1399 383.373L1489.5 436.616L1551 496.062L1637.5 530.179L1656 532.764L1713 562.746L1751 589.109L1817 634.598L1856 656.309V0.33252H0V755.959L0.5 755.558Z" fill="#4A3628"/>
<path d="M275.574 744.489L0 705.117V843.952H1856V653.724L1794.98 642.435L1704.96 652.795H1644.44L1588.43 673.517L1530.91 695.275L1456.89 717.032L1453.39 701.491L1460.39 684.914L1453.39 678.697L1442.39 660.048L1423.88 627.411L1408.88 612.906L1390.87 607.208L1374.87 604.099L1362.87 612.906H1351.86L1312.85 622.231L1270.84 635.7L1244.84 652.795L1224.83 684.914L1194.32 695.275L1200.32 717.032L1197.32 728.947L1204.32 752.777L1213.33 760.548L1224.83 774.535L1194.32 790.076L1081.29 808.726L1010.27 812.87H917.747L891.74 790.076L863.232 777.125L825.222 770.909L812.719 777.125L779.21 803.027H610.664L472.627 786.968L275.574 744.489Z" fill="#251B14"/>
<path d="M0.5 418.007L57 406.118L94.5 385.958L152.5 339.435L331.5 237.084L359.5 170.917L417 135.767L556.5 77.8711L601.5 31.3479L632.5 16.8741H684L753.5 41.1695C785.333 49.268 851.7 65.4649 862.5 65.4649H997.5C1002.3 65.4649 1033.5 49.268 1048.5 41.1695L1107.5 16.8741L1117 0.33252H0V418.007H0.5Z" fill="#251B14"/>
<path d="M1525 0.33252L1576.5 61.3295L1612 85.625L1645.5 137.317L1677.5 200.382H1755L1794 210.204L1824 242.253V286.191L1840.5 318.241L1855.5 331.681V0.849443V0.33252H1525Z" fill="#251B14"/>
</svg>
